<?xml version="1.0" encoding="utf-8"?>
<!-- Generator: Adobe Illustrator 27.5.0, SVG Export Plug-In . SVG Version: 6.00 Build 0)  -->
<svg version="1.1" xmlns="http://www.w3.org/2000/svg" xmlns:xlink="http://www.w3.org/1999/xlink" x="0px" y="0px"
	 viewBox="0 0 500 500" style="enable-background:new 0 0 500 500;" xml:space="preserve">
<g id="Floor">
	<ellipse id="Floor_7_" style="fill:#F5F5F5;" cx="251.124" cy="333.691" rx="238.528" ry="140.13"/>
</g>
<g id="Shadows">
	<path id="Shadow_2_" style="fill:#E0E0E0;" d="M35.084,343.628l112.598,65.008c2.563,1.48,6.717,1.48,9.28,0l212.037-122.42
		c2.563-1.48,2.563-3.878,0-5.358L256.402,215.85c-2.563-1.479-6.717-1.48-9.28,0L35.084,338.271
		C32.522,339.75,32.522,342.149,35.084,343.628z"/>
	<ellipse id="Shadow_1_" style="fill:#E0E0E0;" cx="423.776" cy="358.896" rx="37.517" ry="21.661"/>
	<ellipse id="Shadow" style="fill:#E0E0E0;" cx="319.047" cy="373.474" rx="55.809" ry="32.221"/>
</g>
<g id="Device">
	<g id="Mobile_2_">
		<g id="Device_2_">
			<path id="XMLID_1167_" style="fill:#263238;" d="M42.604,321.2c-1.579,1.223-1.408,2.96,0.508,4.058l104.839,60.537
				c2.105,1.208,5.523,1.209,7.626-0.005l200.363-115.68c1.939-1.119,2.098-2.884,0.448-4.102c1.894,1.342,3.364,4.048,3.366,6.31
				l0.006,5.039c0.007,2.431-1.701,5.391-3.813,6.61L155.593,399.643c-2.112,1.219-5.529,1.218-7.631-0.003L43.119,339.116
				c-2.106-1.208-3.815-4.169-3.813-6.605l-0.011-5.048C39.299,325.232,40.733,322.558,42.604,321.2z"/>
			<path id="XMLID_1164_" style="fill:#455A64;" d="M43.112,325.259l104.839,60.537c2.105,1.208,5.523,1.209,7.626-0.005
				l200.363-115.68c2.104-1.214,2.106-3.189,0-4.397l-104.839-60.537c-2.105-1.208-5.523-1.209-7.626,0.005L43.112,320.861
				C41.009,322.075,41.006,324.05,43.112,325.259z M227.351,220.827c1.801-1.04,3.678-0.438,5.483,0.609l95.329,55.04
				c1.8,1.039,1.807,2.731-0.002,3.775l-155.997,90.065c-1.809,1.044-4.734,1.036-6.542,0.003l-95.32-55.045
				c-1.814-1.042-1.807-2.73-0.007-3.77L227.351,220.827z"/>
			<path id="XMLID_1162_" style="fill:#37474F;" d="M356.388,266.009c1.894,1.342,3.364,4.048,3.366,6.31l0.006,5.039
				c-0.002,2.436-1.701,5.391-3.813,6.61L155.593,399.643c-1.056,0.61-2.44,0.912-3.823,0.915l-0.007-13.857
				c1.384-0.003,2.767-0.305,3.814-0.91l200.363-115.68C357.879,268.991,358.037,267.227,356.388,266.009z"/>
			<path id="XMLID_1105_" d="M293.465,241.389c-1.412-0.815-1.412-2.136,0-2.952c1.412-0.815,3.701-0.815,5.112,0
				c1.412,0.815,1.412,2.136,0,2.952C297.165,242.204,294.876,242.204,293.465,241.389z"/>
			<path id="XMLID_1104_" style="fill:none;stroke:#E6E6E6;stroke-miterlimit:10;" d="M99.419,352.091
				c-3.325-1.919-3.324-5.031,0-6.95c3.324-1.919,8.714-1.919,12.038,0c3.324,1.919,3.324,5.031,0,6.95
				C108.133,354.01,102.743,354.01,99.419,352.091z"/>
			<path id="XMLID_1093_" d="M295.988,251.181l-19.735-11.394c-1.178-0.68-1.236-1.748-0.132-2.386
				c1.104-0.638,2.954-0.604,4.132,0.076l19.735,11.395c1.177,0.68,1.236,1.747,0.132,2.385
				C299.016,251.895,297.166,251.861,295.988,251.181z"/>
			<path id="XMLID_1092_" style="fill:#27DEBF;" d="M227.351,220.827c1.801-1.04,3.678-0.438,5.483,0.609l95.329,55.04
				c1.8,1.039,1.807,2.731-0.002,3.775l-155.997,90.065c-1.809,1.044-4.734,1.036-6.542,0.003l-95.32-55.045
				c-1.814-1.042-1.807-2.73-0.007-3.77L227.351,220.827z"/>
			<path id="XMLID_1091_" style="opacity:0.8;fill:#FFFFFF;" d="M227.351,220.827c1.801-1.04,3.678-0.438,5.483,0.609l95.329,55.04
				c1.8,1.039,1.807,2.731-0.002,3.775l-155.997,90.065c-1.809,1.044-4.734,1.036-6.542,0.003l-95.32-55.045
				c-1.814-1.042-1.807-2.73-0.007-3.77L227.351,220.827z"/>
		</g>
	</g>
</g>
<g id="Plants">
	<g id="Plants_11_">
		<g id="XMLID_913_">
			<path id="XMLID_932_" style="fill:#27DEBF;" d="M97.728,303.26l6.628-3.787c0,0,3.179-17.519,0.802-32.579
				c-3.343-21.173-17.759-28.477-22.995-26.372c-5.236,2.105-6.467,8.377,2.989,20.611C90.731,268.351,97.907,283.61,97.728,303.26z
				"/>
			<path id="XMLID_915_" style="opacity:0.3;" d="M97.728,303.26l6.628-3.787c0,0,3.179-17.519,0.802-32.579
				c-3.343-21.173-17.759-28.477-22.995-26.372c-5.236,2.105-6.467,8.377,2.989,20.611C90.731,268.351,97.907,283.61,97.728,303.26z
				"/>
			<path id="XMLID_914_" style="fill:#FFFFFF;" d="M100.131,294.851c-0.022,0-0.043-0.002-0.065-0.005
				c-0.258-0.036-0.439-0.274-0.403-0.533c2.739-19.823-5.232-41.541-14.189-50.293c-0.187-0.182-0.19-0.482-0.007-0.668
				c0.183-0.185,0.482-0.19,0.668-0.007c9.12,8.912,17.244,30.984,14.464,51.098C100.565,294.679,100.363,294.851,100.131,294.851z"
				/>
		</g>
		<g id="XMLID_907_">
			<path id="XMLID_912_" style="fill:#27DEBF;" d="M79.338,313.884c-1.047,0.601-3.206-0.713-4.033-1.268
				c-1.415-0.95-2.562-2.294-3.324-3.816c-0.886-1.77-1.11-3.667-0.832-5.625c0.144-1.016,0.428-2.005,0.712-2.991
				c0.278-0.968,0.556-1.936,0.835-2.904c0.275-0.955,0.552-1.943,0.426-2.928c-0.254-1.986-2.017-3.377-3.619-4.577
				c-1.772-1.327-3.617-3.078-3.607-5.469c0.008-1.845,0.963-3.558,2.106-5.005c1.143-1.448,2.5-2.727,3.533-4.255
				c0.744-1.1,1.324-2.392,1.203-3.715c-0.075-0.822-0.416-1.595-0.809-2.321c-0.844-1.557-1.958-2.982-2.54-4.655
				c-0.582-1.672-0.499-3.752,0.806-4.949c1.071-0.982,2.663-1.119,4.114-1.023c1.342,0.089,2.652,0.694,3.826,1.347
				c3.795,2.11,5.962,6.605,9.989,8.229c1.553,0.626,3.255,0.763,4.875,1.191c1.619,0.428,3.27,1.255,4.02,2.753
				c1.478,2.953-1.265,6.592-0.226,9.726c0.92,2.774,3.615,3.835,5.129,6.335c0.662,1.094,0.815,2.357,0.708,3.631
				c-0.181,2.156-0.496,3.738-1.531,6.136c-0.855,1.981-3.368,5.528-3.368,5.528C97.665,303.322,79.499,313.791,79.338,313.884z"/>
			<path id="XMLID_911_" style="opacity:0.15;" d="M79.338,313.884c-1.047,0.601-3.206-0.713-4.033-1.268
				c-1.415-0.95-2.562-2.294-3.324-3.816c-0.886-1.77-1.11-3.667-0.832-5.625c0.144-1.016,0.428-2.005,0.712-2.991
				c0.278-0.968,0.556-1.936,0.835-2.904c0.275-0.955,0.552-1.943,0.426-2.928c-0.254-1.986-2.017-3.377-3.619-4.577
				c-1.772-1.327-3.617-3.078-3.607-5.469c0.008-1.845,0.963-3.558,2.106-5.005c1.143-1.448,2.5-2.727,3.533-4.255
				c0.744-1.1,1.324-2.392,1.203-3.715c-0.075-0.822-0.416-1.595-0.809-2.321c-0.844-1.557-1.958-2.982-2.54-4.655
				c-0.582-1.672-0.499-3.752,0.806-4.949c1.071-0.982,2.663-1.119,4.114-1.023c1.342,0.089,2.652,0.694,3.826,1.347
				c3.795,2.11,5.962,6.605,9.989,8.229c1.553,0.626,3.255,0.763,4.875,1.191c1.619,0.428,3.27,1.255,4.02,2.753
				c1.478,2.953-1.265,6.592-0.226,9.726c0.92,2.774,3.615,3.835,5.129,6.335c0.662,1.094,0.815,2.357,0.708,3.631
				c-0.181,2.156-0.496,3.738-1.531,6.136c-0.855,1.981-3.368,5.528-3.368,5.528C97.665,303.322,79.499,313.791,79.338,313.884z"/>
			<g id="XMLID_908_">
				<path id="XMLID_910_" style="fill:#FFFFFF;" d="M90.098,308.151c-0.007,0-0.013,0-0.013,0c-0.268-0.011-0.47-0.232-0.46-0.492
					c0.781-18.762-8.059-39.476-14.488-45.494c-0.19-0.178-0.2-0.477-0.022-0.668c0.179-0.19,0.477-0.199,0.668-0.022
					c6.558,6.139,15.578,27.197,14.787,46.223C90.559,307.952,90.35,308.151,90.098,308.151z"/>
				<path id="XMLID_909_" style="fill:#FFFFFF;" d="M87.286,285.984c-0.046,0-0.093-0.007-0.139-0.021
					c-6.028-1.863-13.541-2.192-13.616-2.195c-0.261-0.011-0.463-0.232-0.453-0.492c0.011-0.26,0.209-0.466,0.492-0.453
					c0.077,0.004,7.709,0.337,13.856,2.237c0.249,0.077,0.389,0.341,0.312,0.591C87.675,285.854,87.489,285.984,87.286,285.984z"/>
			</g>
		</g>
	</g>
</g>
<g id="Mailbox">
	<g id="MailBox_2_">
		<g>
			<g>
				<path style="fill:#27DEBF;" d="M160.577,132.902l-12.229-7.06c-0.544-0.314-0.94-0.393-1.154-0.268
					c-0.256,0.15-1.275,0.739-1.49,0.861c-0.26,0.148-0.255,0.59,0.073,1.271l2.975,6.159l-2.22,2.038
					c-1.017,0.934-0.872,2.25,0.323,2.94l12.228,7.06l1.493-0.863V132.902z"/>
				<path style="opacity:0.5;fill:#FFFFFF;" d="M160.577,132.902l-12.229-7.06c-0.544-0.314-0.94-0.393-1.154-0.268
					c-0.256,0.15-1.275,0.739-1.49,0.861c-0.26,0.148-0.255,0.59,0.073,1.271l2.975,6.159l-2.22,2.038
					c-1.017,0.934-0.872,2.25,0.323,2.94l12.228,7.06l1.493-0.863V132.902z"/>
				<path id="XMLID_1090_" style="fill:#27DEBF;" d="M146.856,126.705c-1.196-0.69-1.678-0.242-1.078,1.001l2.975,6.159l-2.22,2.038
					c-1.017,0.934-0.872,2.25,0.323,2.941l12.228,7.06v-12.139L146.856,126.705z"/>
			</g>
			<g id="XMLID_1088_">
				<path id="XMLID_1089_" style="fill:#E0E0E0;" d="M160.521,171.807c-0.794,0-1.437-0.643-1.437-1.437v-40.62
					c0-0.794,0.644-1.437,1.437-1.437c0.794,0,1.437,0.644,1.437,1.437v40.62C161.958,171.164,161.315,171.807,160.521,171.807z"/>
			</g>
		</g>
		<g>
			<path id="XMLID_1087_" style="fill:#263238;" d="M102.647,314.67v-2.538h0.626c0.73-1.477,2.095-2.872,4.11-4.035
				c6.319-3.648,16.562-3.648,22.88,0c2.015,1.163,3.381,2.558,4.11,4.035h0.619v2.457c0.051,2.428-1.52,4.865-4.729,6.717
				c-6.318,3.648-16.562,3.648-22.88,0C104.21,319.475,102.633,317.072,102.647,314.67z"/>
			<path id="XMLID_1086_" style="fill:#455A64;" d="M130.263,305.528c-6.318-3.648-16.562-3.648-22.88,0
				c-6.318,3.648-6.318,9.562,0,13.21c6.318,3.648,16.562,3.648,22.88,0C136.581,315.09,136.581,309.175,130.263,305.528z"/>
		</g>
		<g>
			<path id="XMLID_1085_" style="fill:#37474F;" d="M122.989,186.445l-0.003,124.58c0,0.615-0.407,1.23-1.22,1.7
				c-1.626,0.939-4.263,0.939-5.889,0c-0.813-0.469-1.219-1.085-1.219-1.7l0.003-124.58H122.989z"/>
			<polygon id="XMLID_1084_" style="fill:#263238;" points="114.659,196.949 114.659,205.119 122.988,209.916 122.989,201.767 			
				"/>
		</g>
		<g>
			<path style="fill:#37474F;" d="M150.115,181.702l15.4,8.9c-0.08,0.12-0.19,0.24-0.3,0.31l-26.94,15.55
				c-0.23,0.13-0.41,0.03-0.41-0.24v-19.41c0-3.38,0.78-7.14,2.25-10.88L150.115,181.702z"/>
			<path id="XMLID_1083_" style="fill:#263238;" d="M165.632,168.95v21.72l-25.513-14.734c0.025-0.07,0.054-0.143,0.083-0.213
				c2.736-6.834,7.348-12.63,12.347-15.505c2.05-1.187,3.993-1.787,5.771-1.787C162.829,158.431,165.632,162.462,165.632,168.95z"/>
		</g>
		<g id="XMLID_1075_">
			<path id="XMLID_1082_" style="fill:#263238;" d="M193.342,214.918l-0.001-1.94h-0.184v0.277c-0.114-0.526-0.28-1.05-0.506-1.57
				c-1.019-2.377-3.165-4.656-6.44-6.548l-18.232-10.525c-0.759-0.438-1.987-0.438-2.749,0l-27.875,16.093
				c-0.294-0.263-0.616-0.523-0.886-0.977l0,1.954v0.001l0,0c0,0.287,0.19,0.574,0.569,0.793L155.27,223
				c4.878,2.819,11.258,4.202,17.438,4.12c5.348-0.07,10.548-1.238,14.509-3.53c4.099-2.356,6.119-5.482,6.119-8.673H193.342z"/>
			<path id="XMLID_1077_" style="fill:#455A64;" d="M192.652,211.685c-1.019-2.377-3.165-4.656-6.44-6.548l-18.232-10.525
				c-0.759-0.438-1.987-0.438-2.749,0l-27.875,16.093l17.915,10.344c4.878,2.819,11.258,4.202,17.438,4.12
				c5.348-0.073,10.548-1.241,14.509-3.53c3.679-2.117,5.688-4.85,6.059-7.697C193.185,213.186,192.975,212.431,192.652,211.685z"/>
			<path id="XMLID_1076_" style="fill:#37474F;" d="M193.277,213.941c-0.092-0.755-0.302-1.511-0.625-2.257
				c-1.019-2.377-3.165-4.656-6.44-6.548l-18.232-10.525c-0.759-0.438-1.987-0.438-2.749,0l-27.875,16.093l-0.317-0.181
				c-0.759-0.438-0.759-1.149,0-1.587l28.192-16.277c0.762-0.438,1.99-0.438,2.749,0l18.232,10.525
				c3.276,1.892,5.421,4.171,6.44,6.548c0.343,0.79,0.559,1.593,0.644,2.396C193.363,212.735,193.356,213.342,193.277,213.941z"/>
		</g>
		<polygon id="XMLID_1074_" style="fill:#455A64;" points="137.652,208.658 165.844,192.381 165.219,190.909 138.277,206.465 		"/>
		<g>
			<g id="Letter_6_">
				<g id="XMLID_1028_">
					<g id="XMLID_1030_">
						<path id="XMLID_1052_" style="fill:#27DEBF;" d="M163.147,167.656c0-0.428-0.3-0.948-0.671-1.162l-34.325-19.817
							c-0.371-0.214-0.971-0.214-1.342,0l-0.756,0.437c-0.371,0.214-0.671,0.734-0.671,1.162v26.31c0,0.426,0.302,0.949,0.671,1.162
							l34.325,19.817c0.369,0.213,0.973,0.213,1.342,0l0.756-0.437c0.369-0.213,0.671-0.736,0.671-1.162L163.147,167.656z"/>
					</g>
				</g>
				<path id="XMLID_1027_" style="opacity:0.35;" d="M162.951,166.995l-1.904,1.098l-35.467-20.479
					c0.121-0.21,0.289-0.394,0.473-0.501l0.759-0.435c0.368-0.216,0.971-0.216,1.339,0l34.325,19.816
					C162.662,166.601,162.83,166.785,162.951,166.995z"/>
				<g id="XMLID_1025_">
					<g id="XMLID_1026_">
						<path style="fill:#27DEBF;" d="M160.891,195.71c0.04,0.01,0.08,0.01,0.13,0.01h-0.04
							C160.941,195.72,160.921,195.72,160.891,195.71z"/>
						<path style="opacity:0.2;" d="M161.051,168.09l-0.35,0.21c0.21,0.08,0.35,0.29,0.35,0.57v26.31c0,0.22-0.08,0.37-0.21,0.44
							c-0.09,0.04-0.2,0.05-0.32,0.01c-0.05-0.02-0.1-0.04-0.14-0.06l-34.33-19.82c-0.37-0.22-0.67-0.74-0.67-1.16v-26.31
							c0-0.22,0.08-0.46,0.2-0.67L161.051,168.09z"/>
					</g>
				</g>
				<path id="XMLID_1024_" style="opacity:0.2;" d="M161.046,168.093l-15.896,5.939c-1.133,0.422-2.406,0.003-3.066-1.009
					l-2.553-3.911l-14.08-21.571l13.571,21.718l-13.641,5.338c0.003,0.216,0.082,0.457,0.209,0.67l13.469-5.947l2.966,4.747
					c0.682,1.089,2.06,1.514,3.234,0.993l2.112-0.932l13.466,21.491c0.127-0.067,0.206-0.219,0.206-0.441v-0.438l-13.607-20.641
					L161.046,168.093z"/>
			</g>
			<g id="Letter_5_">
				<g id="XMLID_1021_">
					<g id="XMLID_1022_">
						<path id="XMLID_1023_" style="fill:#27DEBF;" d="M155.022,172.312c0-0.428-0.3-0.948-0.671-1.162l-34.325-19.817
							c-0.371-0.214-0.971-0.214-1.342,0l-0.756,0.437c-0.371,0.214-0.671,0.734-0.671,1.162v26.311
							c0,0.426,0.302,0.949,0.671,1.162l34.325,19.817c0.369,0.213,0.973,0.213,1.342,0l0.756-0.437
							c0.369-0.213,0.671-0.736,0.671-1.162L155.022,172.312z"/>
					</g>
				</g>
				<path id="XMLID_1020_" style="opacity:0.35;" d="M154.826,171.651l-1.904,1.098l-35.467-20.479
					c0.121-0.21,0.289-0.394,0.473-0.502l0.759-0.435c0.368-0.216,0.971-0.216,1.34,0l34.325,19.816
					C154.538,171.258,154.706,171.442,154.826,171.651z"/>
				<g id="XMLID_1015_">
					<g id="XMLID_1016_">
						<path style="fill:#27DEBF;" d="M152.766,200.366c0.04,0.01,0.08,0.01,0.13,0.01h-0.04
							C152.816,200.376,152.796,200.376,152.766,200.366z"/>
						<path style="opacity:0.2;" d="M152.926,172.746l-0.35,0.21c0.21,0.08,0.35,0.29,0.35,0.57v26.31c0,0.22-0.08,0.37-0.21,0.44
							c-0.09,0.04-0.2,0.05-0.32,0.01c-0.05-0.02-0.1-0.04-0.14-0.06l-34.33-19.82c-0.37-0.22-0.67-0.74-0.67-1.16v-26.31
							c0-0.22,0.08-0.46,0.2-0.67L152.926,172.746z"/>
					</g>
				</g>
				<path id="XMLID_1003_" style="opacity:0.2;" d="M152.922,172.749l-15.896,5.939c-1.133,0.422-2.406,0.003-3.066-1.009
					l-2.553-3.911l-14.08-21.571l13.571,21.718l-13.64,5.338c0.003,0.216,0.083,0.457,0.21,0.67l13.469-5.947l2.966,4.747
					c0.682,1.089,2.06,1.514,3.234,0.993l2.112-0.932l13.466,21.491c0.127-0.067,0.206-0.219,0.206-0.441v-0.438l-13.607-20.641
					L152.922,172.749z"/>
			</g>
			<g id="Letter_4_">
				<g id="XMLID_940_">
					<g id="XMLID_942_">
						<path id="XMLID_956_" style="fill:#27DEBF;" d="M146.898,176.969c0-0.428-0.3-0.948-0.671-1.162l-34.325-19.817
							c-0.371-0.214-0.971-0.214-1.342,0l-0.756,0.437c-0.371,0.214-0.671,0.734-0.671,1.162v26.31c0,0.426,0.302,0.949,0.671,1.162
							l34.325,19.817c0.369,0.213,0.973,0.213,1.342,0l0.756-0.437c0.369-0.213,0.671-0.736,0.671-1.162L146.898,176.969z"/>
					</g>
				</g>
				<path id="XMLID_939_" style="opacity:0.35;" d="M146.702,176.308l-1.905,1.098l-35.467-20.479
					c0.121-0.21,0.289-0.394,0.473-0.501l0.759-0.435c0.368-0.216,0.971-0.216,1.34,0l34.325,19.816
					C146.413,175.914,146.581,176.098,146.702,176.308z"/>
				<g id="XMLID_936_">
					<g id="XMLID_937_">
						<path style="fill:#27DEBF;" d="M144.642,205.022c0.04,0.01,0.08,0.01,0.13,0.01h-0.04
							C144.692,205.032,144.672,205.032,144.642,205.022z"/>
						<path style="opacity:0.2;" d="M144.802,177.402l-0.35,0.21c0.21,0.08,0.35,0.29,0.35,0.57v26.31c0,0.22-0.08,0.37-0.21,0.44
							c-0.09,0.04-0.2,0.05-0.32,0.01c-0.05-0.02-0.1-0.04-0.14-0.06l-34.33-19.82c-0.37-0.22-0.67-0.74-0.67-1.16v-26.31
							c0-0.22,0.08-0.46,0.2-0.67L144.802,177.402z"/>
					</g>
				</g>
				<path id="XMLID_935_" style="opacity:0.2;" d="M144.797,177.406l-15.896,5.939c-1.133,0.422-2.406,0.003-3.066-1.009
					l-2.553-3.911l-14.08-21.571l13.571,21.718l-13.64,5.338c0.003,0.216,0.082,0.457,0.209,0.67l13.469-5.947l2.966,4.747
					c0.682,1.089,2.06,1.514,3.234,0.993l2.112-0.932l13.466,21.491c0.127-0.067,0.206-0.219,0.206-0.441v-0.438l-13.607-20.641
					L144.797,177.406z"/>
			</g>
		</g>
		<g>
			<path style="fill:#455A64;" d="M162.065,157.732c-2.73-1.43-6.35-1.18-10.31,1.11c-4.45,2.56-8.46,7.19-11.27,12.51
				c-0.66,1.23-1.24,2.5-1.76,3.78c-1.55,3.86-2.45,7.9-2.45,11.68v22.18c-0.5,0-0.99-0.12-1.37-0.33l-48.83-28.24
				c-0.75-0.44-1.37-1.51-1.37-2.38v-21.06c0-10.52,6.93-23.04,15.47-27.98c4.05-2.34,7.73-2.53,10.49-0.98l0.01-0.02
				L162.065,157.732z"/>
			<path style="fill:#37474F;" d="M138.725,175.132c-1.55,3.86-2.45,7.9-2.45,11.68v22.18c-0.17,0-0.34-0.02-0.5-0.05
				c-0.01-1.28-0.02-8.4-0.02-22.13c0-16.32,12.55-26.69,16-27.97c-4.45,2.56-8.46,7.19-11.27,12.51
				C139.825,172.582,139.245,173.852,138.725,175.132z"/>
		</g>
		<path id="XMLID_934_" style="fill:#455A64;" d="M138.277,206.465c-0.228,0.132-0.412,0.025-0.412-0.238v-19.413
			c0-3.384,0.781-7.139,2.254-10.878c0.025-0.07,0.054-0.143,0.083-0.213c0.552-1.381,1.181-2.717,1.879-3.996
			c2.736-5.059,6.478-9.214,10.468-11.509c2.05-1.187,3.993-1.787,5.771-1.787c1.124,0,2.143,0.251,3.038,0.727
			c2.698,1.438,4.275,4.923,4.275,9.792v21.244c0,0.263-0.185,0.583-0.412,0.714l0.625,1.473c0.048-0.029,0.095-0.057,0.14-0.089
			c0.206-0.143,0.4-0.333,0.568-0.549c0.003,0,0.003-0.003,0.003-0.006c0.4-0.505,0.663-1.162,0.663-1.736V168.95
			c0-5.634-1.99-9.554-5.152-11.214c-2.736-1.435-6.348-1.184-10.313,1.108c-4.447,2.558-8.456,7.186-11.274,12.509
			c-0.651,1.228-1.238,2.495-1.752,3.78c-1.549,3.86-2.45,7.897-2.45,11.681v22.174c0.079,0,0.159-0.003,0.238-0.01
			c0.416-0.029,0.819-0.136,1.136-0.32L138.277,206.465z"/>
	</g>
</g>
<g id="Trash_Can">
	<g id="Trash_Can_1_">
		<path style="fill:#37474F;" d="M458.173,294.347h-68.828l6.023,60.78h0.004c0.373,3.893,3.13,7.724,8.281,10.697
			c11.104,6.411,29.109,6.411,40.213,0c5.151-2.974,7.908-6.805,8.28-10.697h0.004L458.173,294.347z"/>
		<ellipse style="fill:#455A64;" cx="423.759" cy="293.24" rx="34.468" ry="19.9"/>
		<path style="fill:#37474F;" d="M423.759,310.305c-8.717,0-16.869-1.936-22.955-5.449c-5.596-3.23-8.678-7.356-8.678-11.616
			c0-4.26,3.082-8.386,8.678-11.616c6.086-3.514,14.238-5.449,22.955-5.449s16.869,1.936,22.955,5.449
			c5.596,3.23,8.678,7.357,8.678,11.616c0,4.26-3.082,8.386-8.678,11.616C440.628,308.369,432.476,310.305,423.759,310.305z"/>
		<path style="opacity:0.1;" d="M447.418,297.271c-1.721-1.293-4.781-0.125-5.962-1.925c-0.373-0.568-0.45-1.338-0.974-1.771
			c-1.598-1.322-4.027,2.259-5.704,1.039c-0.619-0.45-0.773-1.41-1.471-1.721c-0.503-0.224-1.085-0.015-1.636-0.033
			c-1.198-0.038-2.089-1.131-2.581-2.224c-0.493-1.092-0.785-2.315-1.59-3.203c-0.586-0.646-1.422-1.061-2.292-1.136
			c-2.155-0.185-3.932,1.568-5.373,3.18c-0.235,0.263-0.47,0.525-0.704,0.788c-0.439,0.491-0.894,0.995-1.486,1.284
			c-0.302,0.148-0.654,0.235-0.975,0.135c-0.368-0.114-0.625-0.451-0.786-0.802c-0.61-1.328-0.473-3.355-1.886-3.727
			c-0.38-0.1-0.828-0.044-1.122-0.306c-0.268-0.238-0.297-0.649-0.508-0.94c-0.26-0.36-0.745-0.471-1.188-0.504
			c-2.899-0.212-5.461,1.734-7.711,3.574c-1.211-0.8-1.335-2.572-0.875-3.949c1.156-3.463,4.808-5.37,8.226-6.654
			c1.602-0.602,3.231-1.127,4.872-1.61c-5.602,0.814-10.731,2.456-14.885,4.854c-5.596,3.23-8.678,7.357-8.678,11.616
			c0,4.26,3.082,8.386,8.678,11.616c6.086,3.514,14.238,5.449,22.955,5.449s16.869-1.936,22.955-5.449
			c0.124-0.072,0.24-0.146,0.361-0.218c0.338-0.708,0.648-1.43,0.915-2.169C448.627,300.708,448.914,298.395,447.418,297.271z"/>
		<g>
			<path style="fill:#263238;" d="M407.557,361.402c-1.547-0.598-3.017-1.292-4.38-2.081c-0.516-0.297-1.007-0.603-1.475-0.917
				c-0.797-0.535-1.497-2.138-1.612-3.514l-3.414-40.877c-0.115-1.376,0.507-1.916,1.445-1.284c0.551,0.371,1.13,0.733,1.737,1.082
				c1.692,0.978,3.516,1.829,5.444,2.552c1.293,0.485,2.422,1.926,2.491,3.305l2.001,40.056
				C409.861,361.104,408.844,361.9,407.557,361.402z"/>
			<path style="fill:#263238;" d="M429.064,321.771l-0.684,39.761c-0.024,1.381-1.158,2.609-2.538,2.666
				c-1.388,0.058-2.781,0.058-4.171,0c-1.379-0.057-2.513-1.286-2.535-2.666l-0.648-39.761c-0.023-1.381,1.073-2.387,2.452-2.317
				c1.888,0.096,3.786,0.096,5.673,0C427.992,319.385,429.088,320.391,429.064,321.771z"/>
			<path style="fill:#263238;" d="M450.887,313.973l-3.45,40.918c-0.116,1.376-0.819,2.981-1.619,3.516
				c-0.469,0.314-0.962,0.619-1.481,0.915c-1.369,0.788-2.841,1.483-4.389,2.081c-1.288,0.497-2.304-0.298-2.234-1.677l2.036-40.066
				c0.07-1.379,1.2-2.821,2.492-3.308c1.918-0.722,3.732-1.569,5.415-2.539c0.617-0.355,1.206-0.721,1.765-1.098
				C450.374,312.071,451.003,312.597,450.887,313.973z"/>
		</g>
		<path style="fill:#27DEBF;" d="M394.106,299.059c1.469,2.108,3.724,4.08,6.698,5.797c6.086,3.514,14.238,5.449,22.955,5.449
			s16.869-1.936,22.955-5.449c1.936-1.118,3.563-2.344,4.874-3.645c-0.122-0.596-0.313-1.175-0.612-1.706
			c-0.64-1.138-1.798-2.036-3.101-2.121c-0.742-0.048-1.482,0.161-2.225,0.13c-0.743-0.032-1.57-0.421-1.722-1.149
			c-0.069-0.332,0.014-0.68-0.051-1.013c-0.169-0.874-1.269-1.247-2.144-1.085c-0.875,0.162-1.649,0.671-2.511,0.892
			c-0.862,0.221-1.968,0.022-2.311-0.799c-0.175-0.418-0.114-0.919-0.347-1.307c-0.488-0.815-1.901-0.63-2.372-1.456
			c-0.367-0.644,0.089-1.425,0.198-2.158c0.18-1.218-0.682-2.4-1.767-2.984c-1.085-0.584-2.351-0.702-3.578-0.808
			c-1.337-0.116-2.796-0.202-3.904,0.556c-1.159,0.793-1.588,2.263-2.143,3.553c-0.555,1.29-1.565,2.647-2.969,2.63
			c-0.06-1.161-0.821-2.259-1.888-2.721c-0.621-0.27-1.31-0.331-1.964-0.509c-2.049-0.556-3.957-2.267-6.008-1.716
			c-0.864,0.232-1.569,0.84-2.24,1.431c-1.111,0.977-2.223,1.954-3.334,2.931c-0.754,0.663-1.543,1.379-1.825,2.342
			c-0.117,0.401-0.144,0.838-0.363,1.194c-0.629,1.02-1.94,0.604-2.904,0.618c-1.469,0.02-2.507,0.199-3.7,1.129
			C395.063,297.66,394.491,298.326,394.106,299.059z"/>
		<path style="opacity:0.1;" d="M446.714,304.856c1.936-1.118,3.563-2.344,4.874-3.645c-0.042-0.207-0.106-0.407-0.166-0.608
			c-2.314,1.935-5.557,2.742-8.497,2.034c-1.01-0.243-2.007-0.653-3.044-0.601c-1.038,0.052-2.152,0.779-2.166,1.818
			c-0.002,0.138,0.014,0.285-0.054,0.405c-0.084,0.15-0.267,0.208-0.435,0.244c-2.618,0.569-5.594-0.971-7.917,0.364
			c-0.836,0.481-1.482,1.297-2.4,1.593c-1.003,0.323-2.084-0.048-3.072-0.416c-0.277-0.103-0.565-0.213-0.771-0.425
			c-0.393-0.404-0.385-1.057-0.699-1.525c-0.245-0.366-0.657-0.577-1.051-0.774c-1.411-0.704-2.925-1.427-4.492-1.245
			c-1.902,0.221-3.438,1.78-4.167,3.55c-3.69-1.283-6.359-5.593-10.244-5.187c-0.34-1.203,1.089-2.113,2.288-2.467
			c1.199-0.354,2.692-0.92,2.74-2.17c0.02-0.519-0.244-1.025-0.182-1.54c0.088-0.724,0.805-1.366,0.587-2.062
			c-0.101-0.323-0.383-0.549-0.589-0.818c-0.351-0.458-0.448-1.026-0.375-1.592c-0.763,0.671-1.527,1.342-2.29,2.013
			c-0.754,0.663-1.543,1.379-1.825,2.342c-0.117,0.401-0.144,0.838-0.363,1.194c-0.629,1.02-1.94,0.604-2.904,0.618
			c-1.469,0.02-2.507,0.199-3.7,1.129c-0.739,0.576-1.311,1.242-1.697,1.975c1.469,2.108,3.724,4.08,6.698,5.797
			c6.086,3.514,14.238,5.449,22.955,5.449S440.628,308.369,446.714,304.856z"/>
	</g>
</g>
<g id="Character">
	<g id="Character_1_">
		<g id="Letter_2_">
			<g id="XMLID_904_">
				<g id="XMLID_905_">
					<path id="XMLID_906_" style="fill:#27DEBF;" d="M396.743,226.808c0-0.404-0.284-0.896-0.634-1.098l-32.419-18.717
						c-0.35-0.202-0.917-0.202-1.267,0l-0.714,0.412c-0.35,0.202-0.634,0.693-0.634,1.098v24.85c0,0.402,0.285,0.896,0.634,1.098
						l32.419,18.717c0.349,0.201,0.919,0.201,1.267,0l0.714-0.412c0.349-0.201,0.634-0.695,0.634-1.098L396.743,226.808z"/>
				</g>
			</g>
			<path id="XMLID_903_" style="opacity:0.4;fill:#FFFFFF;" d="M396.558,226.184l-1.799,1.037l-33.498-19.342
				c0.114-0.198,0.273-0.372,0.447-0.474l0.716-0.411c0.348-0.204,0.917-0.204,1.265,0l32.419,18.716
				C396.285,225.812,396.444,225.986,396.558,226.184z"/>
			<path id="XMLID_902_" style="opacity:0.2;" d="M396.744,226.807v24.849c0,0.405-0.285,0.896-0.636,1.097l-0.714,0.414
				c-0.054,0.03-0.111,0.057-0.174,0.078c-0.081,0.027-0.168,0.048-0.261,0.06c-0.165,0.021-0.339,0.015-0.501-0.018
				c-0.042-0.009-0.084-0.021-0.123-0.033c-0.027-0.009-0.051-0.018-0.075-0.03c0.117,0.042,0.219,0.036,0.303-0.006
				c0.12-0.063,0.195-0.207,0.195-0.417v-24.849c0-0.261-0.132-0.459-0.33-0.54l0.33-0.192l1.799-1.037
				C396.672,226.381,396.744,226.606,396.744,226.807z"/>
			<path id="XMLID_901_" style="opacity:0.2;" d="M394.759,227.221l-15.013,5.609c-1.07,0.399-2.272,0.003-2.896-0.953l-2.411-3.694
				l-13.298-20.373l12.817,20.512l-12.883,5.042c0.003,0.204,0.078,0.432,0.198,0.632l12.721-5.617l2.802,4.484
				c0.645,1.028,1.946,1.43,3.055,0.938l1.995-0.881l12.719,20.298c0.12-0.063,0.195-0.207,0.195-0.417v-0.414l-12.851-19.495
				L394.759,227.221z"/>
		</g>
		<path style="fill:#FFA8A7;" d="M367.085,179.568L352.22,152.73c0,0-16.532-20.636-10.056-29.2
			c8.818-0.806,16.615,0.73,24.034,14.97c8.288,15.907,12.235,27.429,16.544,37.801c1.191,2.866,1.07,16.988,0.789,27.685
			c-0.183,6.969,0.241,14.595,0.241,14.595l-5.601-3.234c-1.281-0.74-2.732-1.137-4.211-1.153l-1.399-0.015
			c0,0-2.401,2.463-2.997,5.135c-0.898,4.029-3.089,5.233-4.265,4.294c-0.572-0.457-0.971-2.813,0.334-8.413
			c1.073-4.603,5.269-9.108,4.719-12.622L367.085,179.568z"/>
		<path style="fill:#37474F;" d="M342.164,123.53c0,0,5.617-1.259,9.834,0.162c4.217,1.421,7.183,3.07,11.697,9.79
			c4.514,6.72,14.508,30.174,14.508,30.174s-1.215,6.464-15.986,8.786l-14.739-23.729L342.164,123.53z"/>
		<g>
			<g id="XMLID_898_">
				<g id="XMLID_899_">
					<polygon id="XMLID_900_" style="fill:#FFA8A7;" points="319.114,116.045 322.084,134.783 340.66,133.792 337.996,112.014 					
						"/>
				</g>
			</g>
			<g id="XMLID_893_">
				<g id="XMLID_896_">
					<path id="XMLID_897_" style="fill:#F28F8F;" d="M306.62,93.054c0,0-4.428,6.719-3.924,7.379
						c0.504,0.66,3.763,1.256,3.763,1.256L306.62,93.054z"/>
				</g>
				<g id="XMLID_894_">
					<path id="XMLID_895_" style="fill:#FFA8A7;" d="M318.915,74.467c-8.961,1.89-11.548,5.829-12.392,20.064
						c-0.882,14.874,0.636,19.549,2.59,21.552c1.319,1.351,8.649,1.596,12.347,0.576c4.628-1.276,15.087-4.982,19.986-12.464
						c5.762-8.803,7.276-20.732,1.107-25.626C333.871,71.681,322.562,73.698,318.915,74.467z"/>
				</g>
				<path style="fill:#F28F8F;" d="M319.277,117.074c0,0,2.507-0.442,4.72-1.191c0,0-1.298,1.758-4.498,2.593L319.277,117.074z"/>
			</g>
			<g id="XMLID_824_">
				<g id="XMLID_890_">
					<g id="XMLID_891_">
						<path id="XMLID_892_" style="fill:#263238;" d="M304.713,79.965c0.667,0.707,1.469,1.281,2.287,1.811
							c1.199,0.776,2.451,1.47,3.743,2.078c1.213,0.57,2.542,0.92,3.638,1.702c1.626,1.16,1.835,2.697,1.877,4.565
							c0.028,1.223,0.024,2.74,0.042,4.385c0.028,2.469,1.604,4.347,2.373,1.037c0,0,1.417-5.498,6.05-4.807
							c4.664,0.696,5.042,5.913,2.832,10.012c-1.344,2.493-4.944,1.841-4.944,1.841s-0.816,6.853,4.839,12.466
							c0,0,3.573,1.084,10.859-0.47c4.479-0.955,8.778-5.885,11.441-11.814c5.633-12.542,6.026-23.827-1.981-27.21
							c-0.866-5.779-5.416-8.37-10.604-9.562c-7.758-1.782-15.012,2.823-22.685,1.105c-1.247-0.279-2.537-0.578-3.742-0.982
							c-0.492-0.165-1.046-0.327-1.514-0.104c-0.595,0.284-0.769,1.056-0.725,1.714c0.099,1.48,0.973,2.887,2.255,3.633
							c-0.158-0.091-0.901,0.112-1.109,0.126c-0.429,0.028-0.861,0.035-1.291,0.045c-0.831,0.02-1.684-0.103-2.519-0.179
							c-0.581-0.053-1.179-0.104-1.739,0.058c-1.286,0.374-2.026,1.821-1.987,3.16c0.038,1.339,0.684,2.581,1.383,3.723
							c0.283,0.462,0.578,0.918,0.925,1.334C304.513,79.748,304.612,79.858,304.713,79.965z"/>
					</g>
				</g>
				<g id="XMLID_825_">
					<g id="XMLID_826_">
						<path id="XMLID_889_" style="fill:#263238;" d="M347.909,77.497l5.362-3.161c-0.873-1.481-2.781-1.973-4.262-1.101
							C347.529,74.108,347.036,76.016,347.909,77.497z"/>
					</g>
				</g>
			</g>
		</g>
		<g id="XMLID_812_">
			<path id="XMLID_407_" style="fill:#263238;" d="M352.913,355.786c0.04,0.401,0.079,0.803,0.118,1.205
				c0.156,1.588,0.312,3.191,0.122,4.776c-0.132,1.101-0.451,2.59-1.472,3.193c-1.043,0.616-2.322,1.085-3.499,1.369
				c-2.679,0.646-5.621,0.415-8.111-0.795c-2.105-1.023-3.754-2.624-6.038-3.263c-2.335-0.653-4.758-0.907-7.16-1.18
				c-1.068-0.121-2.144-0.248-3.166-0.581c-0.793-0.258-1.541-0.635-2.279-1.024c-2.484-1.31-4.936-2.804-6.764-4.936
				c-1.178-1.374-2.069-3.04-2.418-4.825c-0.207-1.057-0.636-4.1,1.123-4.021c8.619,0.386,17.153,2.235,25.781,2.133
				c0.56-0.007,1.123-0.021,1.676,0.069c1.073,0.175,2.023,0.731,2.895,1.354c1.018,0.728,1.386,0.752,2.645,0.646
				c1.508-0.126,2.983-0.321,4.473,0.066c0.623,0.162,1.299,0.446,1.541,1.043c0.084,0.206,0.107,0.432,0.128,0.653
				C352.644,353.041,352.779,354.414,352.913,355.786z"/>
			<g id="XMLID_820_">
				<path id="XMLID_822_" style="fill:#FFA8A7;" d="M352.03,345.46l-0.445,6.499c-0.419,2.474-8.85,3.987-10.586-0.39l-0.825-7.368
					L352.03,345.46z"/>
			</g>
			<g>
				<path id="XMLID_818_" style="fill:#263238;" d="M319.951,371.158c0,0,1.032,3.381,1.562,6.329
					c0.422,2.344,1.014,6.258,0.157,7.994c-0.857,1.736-4.069,2.797-9.008,2.648c-3.199-0.096-8.235,1.964-11.692,3.792
					c-3.571,1.888-10.922,2.507-14.642,1.985c-4.384-0.615-8.88-3.267-9.55-5.103c-0.669-1.836,0.317-3.705,10.775-7.886
					c0.095-0.038,14.506-4.368,19.643-9.786L319.951,371.158z"/>
				<path id="XMLID_816_" style="fill:#FFA8A7;" d="M320.045,366.986c0,0-0.079,2.863-0.101,4.5c-0.023,1.637-2.01,4.031-7.009,3.74
					c-3.511-0.205-5.943-1.205-5.738-4.096l0.094-4.171L320.045,366.986z"/>
			</g>
			<g id="XMLID_813_">
				<path id="XMLID_815_" style="fill:#27DEBF;" d="M355.43,295.563c-1.483-12.648-2.591-19.896-2.591-19.896
					s0.255-17.612,1.287-34.036c1.114-17.741,0.865-40.079,1.302-44.501c0,0-56.994-12.174-57.457,8.378
					c-0.538,23.882,1.053,73.29,1.391,79.722c0.474,9.033,0.494,18.425,2.028,33.083c1.513,14.467,5.901,48.646,5.901,48.646
					c6.466,3.686,12.755,0.026,12.755,0.026s4.957-40.953,4.768-51.367c-0.231-12.717-2.163-22.515-2.163-22.515l4.491-46.357
					c0,0,1.761,14.332,2.235,23.365c0.474,9.033,1.714,14.545,3.945,31.353c1.936,14.581,6.853,45.358,6.853,45.358
					c6.466,3.686,12.12-0.485,12.12-0.485S356.913,308.21,355.43,295.563z"/>
				<path id="XMLID_814_" style="opacity:0.15;" d="M348.818,225.187c0,0-3.952,6.515-15.931,11.291l-3.333,11.193l-0.364,19.665
					c-0.457-6.337-1.157-13.26-2.048-20.589l1.35-11.531C328.491,235.215,341.721,231.208,348.818,225.187z"/>
			</g>
		</g>
		<g id="XMLID_809_">
			<g id="XMLID_810_">
				<path id="XMLID_811_" style="fill:#455A64;" d="M357.622,135.523c-2.289-8.146-7.667-11.745-13.632-12.124
					c-1.519-0.097-4.598,0.034-4.598,0.034c0.422,3.451-10.212,5.886-18.483,3.938c-2.493,0.654-6.622,1.591-8.698,2.28
					c-5.944,1.973-13.073,9.407-13.998,28.794c0,0-0.944,41.673-0.651,53.778c14.677,6.194,28.845,6.967,37.4,5.299
					c17.809-3.473,20.736-11.104,20.736-11.104s-0.169-10.591-0.832-27.478C357.888,154.926,358.615,139.055,357.622,135.523z"/>
			</g>
		</g>
		<g id="XMLID_401_">
			<g id="XMLID_593_">
				<g id="XMLID_618_">
					<g id="Letter_1_">
						<g id="XMLID_806_">
							<g id="XMLID_807_">
								<path id="XMLID_808_" style="fill:#27DEBF;" d="M233.073,124.263c-0.145-0.381,0.055-0.817,0.447-0.975l36.335-14.615
									c0.392-0.158,1.146-0.105,1.684,0.118l1.097,0.455c0.538,0.223,1.091,0.713,1.236,1.093l8.93,23.416
									c0.145,0.379-0.057,0.818-0.447,0.975l-36.335,14.615c-0.391,0.157-1.148,0.104-1.683-0.118l-1.097-0.455
									c-0.535-0.222-1.091-0.714-1.236-1.093L233.073,124.263z"/>
							</g>
						</g>
						<path id="XMLID_805_" style="opacity:0.4;fill:#FFFFFF;" d="M233.094,123.692l2.762,1.145l37.544-15.103
							c-0.222-0.197-0.496-0.376-0.763-0.488l-1.099-0.454c-0.535-0.225-1.292-0.278-1.68-0.118l-36.335,14.613
							C233.323,123.367,233.175,123.516,233.094,123.692z"/>
						<path id="XMLID_804_" style="opacity:0.2;" d="M233.072,124.262l8.93,23.416c0.145,0.381,0.7,0.871,1.238,1.093l1.096,0.456
							c0.082,0.033,0.168,0.064,0.259,0.09c0.117,0.033,0.24,0.061,0.368,0.081c0.227,0.035,0.455,0.046,0.658,0.03
							c0.053-0.005,0.104-0.012,0.151-0.02c0.033-0.006,0.061-0.012,0.089-0.021c-0.14,0.029-0.278,0.013-0.404-0.034
							c-0.182-0.071-0.333-0.213-0.408-0.411l-8.93-23.416c-0.094-0.246,0.01-0.42,0.244-0.478l-0.507-0.212l-2.762-1.145
							C233.014,123.868,232.999,124.073,233.072,124.262z"/>
						<path id="XMLID_799_" style="opacity:0.2;" d="M235.856,124.837l21.957,6.685c1.565,0.476,3.019,0.215,3.504-0.628
							l1.875-3.256l10.342-17.958l-9.654,18.134l18.924,5.952c0.069,0.192,0.052,0.399-0.035,0.578l-18.916-6.479l-2.11,3.964
							c-0.487,0.909-2.071,1.166-3.721,0.599l-2.966-1.016l-9.6,17.941c-0.182-0.071-0.333-0.213-0.408-0.411l-0.149-0.39
							l10.064-17.172L235.856,124.837z"/>
					</g>
					<path style="fill:#FFA8A7;" d="M294.901,143.25c-6.75,8.655-16.201,20.841-21.543,28.056
						c-3.836-3.684-17.826-16.906-19.263-18.967c-1.617-2.32-1.541-5.499-2.87-8.902c-1.086-2.781-3.523-6.21-4.152-7.63
						c-1.152-2.598-3.685-3.891-3.72-0.088c-0.029,3.16,1.502,6.916,1.326,7.643c-0.075,0.309-1.324-0.322-2.692-1.602
						c-0.603-0.564-1.127-1.208-1.611-1.877l-2.842-3.926l-1.963-5.147c0,0-0.792,0.111-1.789,2.488
						c-2.878,6.863-2.495,14.375,3.049,20.419c3.291,3.588,8.833,8.507,14.582,15.405c5.73,6.875,16.49,18.869,21.091,21.526
						c4.135,2.388,9.188-1.374,15.036-7.26c8.153-8.208,20.757-21.965,20.757-21.965s9.399-15.941,3.917-31.771
						C305.3,129.878,303.522,132.196,294.901,143.25z"/>
					<g id="XMLID_622_">
						<path id="XMLID_623_" style="fill:#37474F;" d="M314.42,129.009c0,0-6.634,0.429-10.845,2.58
							c-1.139,0.582-4.371,4.105-7.45,8.224c-6.048,8.088-16.594,22.102-16.594,22.102s0.202,13.298,13.23,17.036
							c0,0,13.051-13.387,16.556-17.529C313.892,156.014,318.348,139.963,314.42,129.009z"/>
					</g>
				</g>
			</g>
		</g>
	</g>
</g>
</svg>
