<svg version="1.2" xmlns="http://www.w3.org/2000/svg" viewBox="0 0 750 434" width="750" height="434">
	<title>8961448_3973477-svg</title>
	<style>
		.s0 { fill: #ebebeb } 
		.s1 { fill: #dbdbdb } 
		.s2 { fill: #ffffff } 
		.s3 { fill: #c7c7c7 } 
		.s4 { fill: #263238 } 
		.s5 { fill: #eb9481 } 
		.s6 { fill: #a6a6a6 } 
		.s7 { fill: #37474f } 
		.s8 { fill: #ffc727 } 
		.s9 { fill: none;stroke: #f5a79e;stroke-linecap: round;stroke-linejoin: round;stroke-width: .4 } 
		.s10 { fill: #ff99ba } 
		.s11 { fill: #000000 } 
		.s12 { fill: none;stroke: #263238 } 
		.s13 { fill: none;stroke: #263238;stroke-dasharray: 4,4 } 
		.s14 { fill: #455a64 } 
	</style>
	<g id="Background_Complete">
		<g id="Layer">
			<path id="Layer" class="s0" d="m666.9 112.3l-9.5 46.3-6.2-6-10.5 7.5-8-10-17.9 13.1-15.4-25.7-17.1 10.1-6.8-9.4-21.7 12.2-6.6-14 15.3-73.8 81.7 16.9z"/>
			<path id="Layer" class="s1" d="m644.2 79.5l22.8 32.8-28.4-5.9z"/>
			<path id="Layer" class="s0" d="m655.3 167.9l-14 68-110-22.7 13.9-67.5 6.5 14 21.8-12.2 6.8 9.3 17.1-10 15.3 25.7 18-13.1 8 9.9 10.5-7.4z"/>
		</g>
		<g id="Layer">
			<path id="Layer" class="s0" d="m497.8 159.9l-112.1 7-8.9-144 83.2-5.2 30.6 25.7z"/>
			<path id="Layer" class="s1" d="m460 17.7l30.6 25.7-28.9 1.8z"/>
			<g id="Layer">
				<path id="Layer" class="s1" d="m429 114.6l-0.5-3.2c-1.1-6.8 0.7-14.3 6.6-22.2 5.3-6.9 8.1-12 7.8-17.7-0.4-6.4-4.6-10.4-12.5-10.1-4.5 0.3-9.5 2.1-12.5 4.6l-3.4-7.7c3.9-3.3 11-5.7 17.6-6 14.5-0.8 21.5 7.7 22 17.2 0.5 8.6-3.9 15-9.6 22.5-5.1 6.8-6.8 12.4-6.1 18.8l0.3 3.2zm-1.7 17.8c-0.3-4.7 2.7-8.1 7-8.4 4.4-0.2 7.6 2.9 7.9 7.5 0.2 4.4-2.5 8-7.1 8.2-4.4 0.3-7.6-2.9-7.8-7.3z"/>
			</g>
		</g>
		<g id="Layer">
			<path id="Layer" fill-rule="evenodd" class="s0" d="m146.9 93.6c-0.4 1-0.3 2.2 0.4 3q0.3 0.4 0.6 0.8 0.3 0.3 0.5 0.7c0.6 1 1.6 1.5 2.8 1.4l3.7-0.4 1.3 12.4-3.8 0.3c-1.1 0.1-2.1 0.9-2.5 1.9q-0.3 0.9-0.7 1.7c-0.5 1-0.5 2.2 0.2 3.1l2.2 3.1-10.1 7.2-2.2-3.1c-0.7-0.9-1.8-1.3-2.9-1.2q-0.9 0.2-1.8 0.2c-1.1 0-2.1 0.7-2.6 1.7l-1.5 3.5-11.3-5.1 1.5-3.5c0.5-1 0.3-2.2-0.4-3.1q-0.3-0.3-0.5-0.7-0.3-0.4-0.5-0.8c-0.6-0.9-1.7-1.4-2.8-1.3l-3.8 0.3-1.2-12.3 3.8-0.4c1.1-0.1 2-0.8 2.4-1.8q0.4-0.9 0.8-1.7c0.5-1 0.4-2.2-0.2-3.1l-2.2-3.1 10.1-7.2 2.2 3.1c0.6 0.9 1.7 1.3 2.8 1.1q0.9-0.1 1.9-0.1c1.1-0.1 2.1-0.7 2.5-1.7l1.6-3.5 11.3 5.1zm-19 5.6c-4.6 3.3-5.6 9.6-2.4 14.2 3.3 4.5 9.7 5.6 14.2 2.3 4.6-3.2 5.6-9.6 2.3-14.1-3.2-4.6-9.6-5.6-14.1-2.4z"/>
			<path id="Layer" fill-rule="evenodd" class="s0" d="m659.7 256c0.4 0.7 1.1 1.1 1.9 1q0.3 0 0.7 0 0.3 0 0.6 0c0.8 0.1 1.5-0.3 1.9-1l1.4-2.3 7.5 4.3-1.4 2.4c-0.3 0.6-0.3 1.5 0.1 2.1q0.4 0.6 0.7 1.1c0.3 0.7 1 1.2 1.8 1.2h2.7v8.7h-2.7c-0.8 0-1.5 0.4-1.8 1.1q-0.3 0.6-0.7 1.1c-0.4 0.7-0.4 1.5-0.1 2.2l1.4 2.3-7.5 4.3-1.4-2.3c-0.4-0.7-1.1-1-1.9-1q-0.3 0-0.6 0-0.4 0-0.7 0c-0.8 0-1.5 0.3-1.9 1l-1.3 2.3-7.5-4.3 1.3-2.3c0.4-0.7 0.3-1.5-0.1-2.2q-0.3-0.5-0.6-1.1c-0.4-0.7-1.1-1.1-1.9-1.1h-2.6v-8.7h2.6c0.8 0 1.5-0.5 1.9-1.2q0.3-0.5 0.6-1.1c0.4-0.6 0.5-1.5 0.1-2.1l-1.3-2.3 7.5-4.4zm-4.6 13.1c0 3.9 3.2 7.1 7.1 7.1 4 0 7.1-3.2 7.1-7.1 0-3.9-3.1-7.1-7.1-7.1-3.9 0-7.1 3.2-7.1 7.1z"/>
			<path id="Layer" fill-rule="evenodd" class="s0" d="m172.9 55.3c0.5 0.6 1.3 0.9 2 0.7q0.4 0 0.7-0.1 0.3 0 0.6 0c0.8-0.1 1.5-0.6 1.8-1.3l1-2.4 8 3.3-1 2.4c-0.3 0.8-0.2 1.6 0.4 2.2q0.4 0.5 0.7 1c0.5 0.7 1.2 1 2 0.9l2.6-0.3 1.2 8.6-2.7 0.3c-0.7 0.1-1.4 0.7-1.6 1.4q-0.3 0.6-0.5 1.2c-0.4 0.7-0.3 1.5 0.2 2.1l1.6 2.2-6.9 5.2-1.6-2.1c-0.5-0.6-1.3-0.9-2.1-0.8q-0.3 0.1-0.6 0.1-0.3 0.1-0.6 0.1c-0.8 0.1-1.5 0.5-1.8 1.3l-1 2.4-8-3.3 1-2.5c0.3-0.7 0.1-1.5-0.4-2.1q-0.4-0.5-0.8-1c-0.4-0.7-1.1-1-1.9-0.9l-2.7 0.3-1.1-8.6 2.7-0.3c0.7-0.1 1.4-0.7 1.6-1.4q0.2-0.6 0.5-1.2c0.4-0.7 0.3-1.5-0.2-2.2l-1.6-2.1 6.9-5.2zm-2.8 13.5c0.5 3.9 4.1 6.7 7.9 6.2 3.9-0.5 6.7-4.1 6.2-8-0.5-3.9-4.1-6.6-8-6.1-3.9 0.5-6.6 4.1-6.1 7.9z"/>
		</g>
		<g id="Layer">
			<g id="Layer">
				<path id="Layer" class="s0" d="m119.8 278.8c0.4-9.7 0.3-19.4-0.4-29.1-1.3-19.9-4.6-39.7-9.1-59.1-2.5-11-5.6-21.7-8.9-32.5-0.1-0.3-0.6-0.2-0.5 0.1 10.1 37.9 18.3 77 17.7 116.4-0.1 11.1-1.4 21.9-2.4 32.8-0.1 0.3 0.4 0.5 0.5 0.2 2.1-9.4 2.7-19.2 3.1-28.8z"/>
				<path id="Layer" class="s0" d="m100.9 158.2c0 0-15.3 38.7-11.8 47.8 3.4 9.1 10.4 11.1 10.4 11.1 0 0-9.3 13.3-2.8 25.8 6.5 12.5 21 11.9 22 26 0 0 0.8-59.2-17.8-110.7z"/>
				<path id="Layer" class="s2" d="m117 244.5q0-0.1 0-0.2c-2.2-26.3-6.8-52.6-14.8-77.9 0 0-0.2 0-0.1 0.1q4.5 16.9 8 34.1c-2-2-4.6-3.2-7.3-4-0.1-0.1-0.1 0 0 0 2.8 1.3 5.5 2.7 7.5 5.1q0.7 3.3 1.3 6.7c-3.4-3.8-8.2-5.7-12.9-7.5 0 0-0.1 0.1 0 0.1 4.9 2 9.8 4.6 13.1 8.8q1.8 9.7 3.1 19.4c-2.5-2.6-5.6-4.4-9.1-5.2-0.1-0.1-0.1 0.1 0 0.1 3.6 1.1 6.7 3.1 9.2 5.9q0 0 0 0.1 0.5 3.4 0.9 6.8c-1.9-1.6-4-2.9-6.4-3.9 0 0-0.1 0.1 0 0.1 2.4 1.1 4.5 2.5 6.4 4.3q0 0 0.1 0 0.3 3.3 0.7 6.5c-3.5-4.2-7.8-7.3-12.9-9.2-0.1-0.1-0.2 0.1-0.1 0.1 5 2.2 9.4 5.6 12.7 9.8q0.2 0.2 0.4 0.1 0.5 5 0.8 10c0 0.1 0.1 0.1 0.1 0.1q-0.3-5.2-0.7-10.3z"/>
				<path id="Layer" class="s2" d="m104.8 192.7c-2.7-1.8-6.1-2.6-9.2-2.8-0.1-0.1-0.1 0.1 0 0.1 3.3 0.5 6 1.6 9 2.9 0.2 0.1 0.3-0.1 0.2-0.2z"/>
				<path id="Layer" class="s2" d="m106.6 233.7c-2.1-1.3-4.5-2-6.9-2.4-0.1 0-0.1 0.1 0 0.2 2.4 0.4 4.6 1.3 6.8 2.3 0.1 0.1 0.2-0.1 0.1-0.1z"/>
			</g>
			<g id="Layer">
				<path id="Layer" class="s0" d="m159.9 206.7c-6.4 4.4-12.5 9.6-17.6 15.4-5.6 6.2-9.6 13.2-12.4 21-5.8 15.9-9 33.2-9.2 50.2-0.2 9.5 0.6 18.9 2.7 28.2 0 0.3 0.6 0.2 0.5-0.1-2.5-16.3-2.4-33 0.3-49.3 2.6-16 6.7-33.5 16.9-46.5 5.5-7.1 12.4-12.6 19.3-18.4 0.3-0.3-0.1-0.8-0.5-0.5z"/>
				<path id="Layer" class="s0" d="m122.9 281.7c0 0 5.2-8.8 12.9-16.4 7.6-7.6 14-13 15-18.1 1-5-7.6-8.7-7.6-8.7 0 0 10.5 1.9 13.4-2.6 2.9-4.4 4.3-30.1 4.3-30.1 0 0-19.2 13.8-28.2 33-8.9 19.2-9.8 42.9-9.8 42.9z"/>
				<path id="Layer" class="s2" d="m154.2 212.4c-8 8-16.2 16.4-20.9 26.8-1.7 3.6-3 7.3-4.3 11.1q0 0 0 0-0.3 1.1-0.7 2.3 0 0 0 0.1c-2.4 7.8-4 15.9-5.5 23.7 0 0.1 0.1 0.1 0.1 0q1.2-6 2.8-12 0 0 0.1-0.1c1.6-0.6 3.2-1.1 5-1.2 0.1 0 0.1-0.2 0-0.2q-2.6 0.1-5 0.9 1.4-5.5 3.1-10.9c3.7-0.9 7.6-1.4 11.4-1.5 0 0 0 0 0 0-3.9-0.2-7.5 0.1-11.2 0.9q0.3-0.9 0.6-1.8c2.5-0.6 5-1 7.6-1.3 0 0 0-0.1 0-0.1-2.5 0.1-5 0.4-7.5 0.9q1.6-4.6 3.5-9.1c1-2.4 2.2-4.8 3.6-7 2-0.5 4-0.9 6.1-1.1 0.1 0 0.1-0.1 0-0.1-1.9-0.1-3.9 0-5.7 0.6q1.5-2.5 3.2-4.8 0 0 0 0c4.3-1 8.7-1.9 13.1-1 0.1 0 0.1-0.1 0-0.2-4.2-1.1-8.4-0.4-12.5 0.4q0.7-0.9 1.4-1.8c2.6-0.8 5.2-1.2 8-1.3 0.1 0 0.1 0 0 0-2.5-0.3-5 0-7.5 0.6 3.6-4.4 7.5-8.6 11.4-12.7 0.2-0.2 0-0.3-0.2-0.1z"/>
				<path id="Layer" class="s2" d="m154 229.9c-1.2-0.1-2.5-0.3-3.8-0.1-0.1 0-0.1 0.2 0 0.2 1.3 0.1 2.6 0 3.8 0.1 0.1 0 0.1-0.2 0-0.2z"/>
				<path id="Layer" class="s2" d="m140.2 254.8c-2 0-4 0.5-5.9 1.2-0.1 0 0 0.1 0 0.1 2-0.5 4-0.7 5.9-1 0.2 0 0.2-0.3 0-0.3z"/>
				<path id="Layer" class="s2" d="m136.1 246.2c-0.8 0-1.7 0.1-2.5 0.2-0.1 0-0.1 0.2 0 0.2 0.8 0 1.7 0 2.5-0.1 0.1-0.1 0.1-0.3 0-0.3z"/>
			</g>
			<g id="Layer">
				<path id="Layer" class="s0" d="m66.6 233.9c6.2 2.1 12.3 4.9 17.9 8.4 5.9 3.7 10.7 8.5 14.8 14.1 8.4 11.6 14.9 24.9 19.1 38.5 2.3 7.7 3.8 15.5 4.3 23.5 0 0.3-0.4 0.3-0.4 0-1.8-13.8-5.7-27.3-11.7-39.8-5.8-12.4-13.1-25.5-24.4-33.7-6.1-4.5-13-7.4-19.8-10.5-0.4-0.1-0.1-0.6 0.2-0.5z"/>
				<path id="Layer" class="s0" d="m113.9 286.1c0 0-6.3-5.9-14.2-10.3-7.9-4.4-14.4-7.3-16.4-11.2-1.9-3.8 4.2-8.8 4.2-8.8 0 0-8.1 3.9-11.5 1-3.3-2.9-10.4-23.3-10.4-23.3 0 0 18.7 6.6 30.4 20.1 11.7 13.5 17.9 32.5 17.9 32.5z"/>
				<path id="Layer" class="s2" d="m112.9 281.9c-9.3-17.6-21.8-33.5-38.9-43.9q0-0.1 0 0c4.5 2.8 8.6 6.1 12.5 9.8-3.5-0.1-7 0.4-10.1 2.1 0 0 0 0.1 0.1 0.1 3.4-1.2 6.7-1.9 10.3-1.8q0.1 0 0.2 0 0.9 0.9 1.8 1.7c-1.8 0.1-3.7 0.4-5.4 0.8-0.1 0-0.1 0 0 0 1.9-0.3 3.7-0.5 5.7-0.4 3.1 3.1 6 6.5 8.8 10-1.3-0.2-2.6-0.1-3.8 0.3 0 0 0 0.1 0.1 0.1 1.3-0.2 2.6-0.2 4-0.1q0.8 1 1.5 2-5.7-0.3-11.3 1.1c-0.1 0-0.1 0.1 0 0.1q5.8-1.1 11.6-0.8 0.7 1 1.4 2c-2.3-0.1-4.5 0.2-6.7 0.7-0.1 0.1-0.1 0.2 0 0.2 2.3-0.6 4.6-0.7 7-0.6q3 4.2 5.8 8.5c-1-0.2-2-0.1-3 0.2 0 0 0 0.1 0 0.1 1.1-0.2 2.2 0 3.2 0.1q2.6 3.9 4.9 7.9c0.1 0.2 0.5 0 0.3-0.2z"/>
				<path id="Layer" class="s2" d="m98.4 267.3c-1.8-0.1-3.7 0.1-5.5 0.7 0 0 0 0.1 0.1 0.1 1.8-0.4 3.5-0.5 5.4-0.6 0.1 0 0.1-0.2 0-0.2z"/>
				<path id="Layer" class="s2" d="m82.1 245.9c-0.9-0.1-1.7 0-2.5 0.2-0.1 0-0.1 0.1 0 0.1 0.8-0.1 1.6 0 2.4-0.1 0.2 0 0.2-0.2 0.1-0.2z"/>
			</g>
			<g id="Layer">
				<g id="Layer">
					<path id="Layer" class="s1" d="m138 344.2h-42.2l6-44.1 1.6-11.3h27.1l1.5 11.3z"/>
					<path id="Layer" class="s3" d="m132 300.1h-30.2l1.6-11.3h27.1z"/>
				</g>
				<path id="Layer" class="s1" d="m99.5 284.8h34.9v9.6h-34.9z"/>
			</g>
		</g>
	</g>
	<g id="Floor">
		<g id="Layer">
			<path id="Layer" class="s4" d="m69 344.2l76-0.3 76-0.1 152-0.1 152 0.1 76 0.1 76 0.3-76 0.2-76 0.1-152 0.2-152-0.2-76-0.1z"/>
		</g>
	</g>
	<g id="Shadow">
		<g id="Layer">
			<path id="Layer" class="s0" d="m375 418.7c-158.6 0-286.7-14-286.7-31.4 0-17.4 128.1-31.4 286.7-31.4 158.6 0 286.7 14 286.7 31.4 0 17.4-128.1 31.4-286.7 31.4z"/>
		</g>
	</g>
	<g id="Character">
		<g id="Capa_4">
		</g>
		<g id="Layer">
			<g id="Layer">
				<g id="Layer">
					<g id="Layer">
						<path id="Layer" class="s5" d="m308.3 382.1c-2.4 0.8-69.2 1-71.7-0.6-1-0.6-1.6-10.3-2-22.1q-0.1-3.8-0.2-7.8l-5.4-35.7 44.6-0.3 4.2 35.7-0.1 7.8c0 0 25.6 11.4 28.2 13.4 2.6 2.1 4.7 8.8 2.4 9.6z"/>
						<path id="Layer" class="s2" d="m308.3 382.1c-2.4 0.8-69.2 1-71.7-0.6-1.2-0.7-1.9-14.9-2.2-29.9l43.4-0.3-0.1 7.8c0 0 25.6 11.4 28.2 13.4 2.6 2.1 4.7 8.8 2.4 9.6z"/>
						<g id="Layer">
							<path id="Layer" class="s6" d="m308.3 382.1c-2.4 0.8-69.2 1-71.7-0.6-1-0.6-1.6-10.3-2-22.1l43.1-0.3c0 0 25.6 11.4 28.2 13.4 2.6 2.1 4.7 8.8 2.4 9.6z"/>
							<g id="Layer">
								<g id="Layer">
									<path id="Layer" class="s4" d="m307.3 379.4c-11.2-0.2-56.4-0.1-67.5 0.5-0.1 0-0.1 0.1 0 0.1 11.1 0.5 56.3 0 67.5-0.4 0.2 0 0.2-0.2 0-0.2z"/>
									<path id="Layer" class="s4" d="m301.6 370.1c-2.7-0.1-5.3 1.2-6.7 2.8-1.4 1.5-2.6 3.7-2.5 6 0 0.1 0.1 0.1 0.2 0 0.6-4.4 4.5-8.3 9-8.6 0.1 0 0.1-0.1 0-0.2z"/>
									<path id="Layer" class="s4" d="m282 360.2c-4.5 0-9.7 1.6-12.4 5.3-0.1 0.1 0.1 0.2 0.2 0.2 4-2.1 7.9-3.7 12.3-4.9 0.3-0.1 0.2-0.6-0.1-0.6z"/>
									<path id="Layer" class="s4" d="m285.5 361.6c-4.5-0.1-9.7 1.5-12.5 5.2-0.1 0.1 0.1 0.3 0.3 0.2 4-2.1 7.8-3.7 12.3-4.9 0.3-0.1 0.2-0.5-0.1-0.5z"/>
									<path id="Layer" class="s4" d="m288.9 362.9c-4.4 0-9.6 1.6-12.4 5.2-0.1 0.2 0.1 0.3 0.2 0.3 4.1-2.1 7.9-3.7 12.3-4.9 0.3-0.1 0.3-0.6-0.1-0.6z"/>
									<path id="Layer" class="s4" d="m292.4 364.2c-4.5 0-9.7 1.6-12.4 5.3-0.1 0.1 0.1 0.3 0.2 0.2 4-2.1 7.9-3.7 12.3-4.9 0.3-0.1 0.2-0.6-0.1-0.6z"/>
									<path id="Layer" class="s4" d="m242.6 369.3c-5 0-5 7.8 0.1 7.8 5-0.1 4.9-7.9-0.1-7.8z"/>
								</g>
								<path id="Layer" fill-rule="evenodd" class="s4" d="m286.5 354.8c-2.4 3.1-6.1 5.1-9.3 7.3-0.3 0.3-0.7 0-0.8-0.3-0.1 0-0.1 0-0.1-0.1 0.2-3.9 1.7-8.3 4-11.5 1.4-2 4.2-3.8 6.5-2 2.2 1.8 1.1 4.8-0.3 6.6zm0.2-3.7c-0.5-4.9-4.9-1.1-5.8 0.4-0.7 0.9-1.2 2-1.7 3-1 2.2-1.7 4.4-2.5 6.7 1.5-1.2 3.1-2.3 4.6-3.4 1.9-1.4 5.6-4 5.4-6.7z"/>
								<path id="Layer" fill-rule="evenodd" class="s4" d="m260.3 358.9c0.4-3 3.7-3.6 6.1-3.2 3.8 0.7 8 2.9 10.8 5.5 0.1 0.1 0.1 0.1 0 0.2 0.2 0.3 0.1 0.7-0.3 0.8-3.8 0.6-7.9 1.7-11.8 1.2-2.3-0.4-5.1-1.8-4.8-4.5zm10.6 3c1.9-0.2 3.7-0.6 5.7-0.7-2.2-1.1-4.2-2.2-6.5-3.1-1-0.4-2.1-0.8-3.2-1-1.8-0.4-7.5-0.1-4.5 3.7 1.7 2.1 6.2 1.4 8.5 1.1z"/>
							</g>
						</g>
					</g>
					<g id="Layer">
						<path id="Layer" class="s7" d="m163.3 151.2c0 0 51.9 88.2 53.3 94.4 2.1 9.6 13.4 103.6 13.4 103.6l54-1c0 0-9.3-82.9-18.1-110.2-6.4-19.7-52.1-84.9-52.1-84.9z"/>
						<g id="Layer">
							<path id="Layer" class="s4" d="m279.1 339.9c-7.8 0-35.2-0.3-45.5 0.6-0.1 0-0.1 0.2 0 0.2 3.5 0.5 37.7-0.3 45.5-0.6 0.1 0 0.1-0.2 0-0.2z"/>
							<path id="Layer" class="s4" d="m172.2 159.3c3.4 5.3 7 10.6 10.4 15.8q5.3 8 10.4 15.9c6.8 10.7 13.5 21.4 20 32.3 3.1 5 6 10.1 8.1 15.7 2.1 5.5 3.5 11.2 4.6 16.9 1 5.8 1.7 11.7 2.4 17.5q1 9.3 2 18.7 2.2 19.1 4.3 38.2 0.3 2.3 0.5 4.7c0 0.2-0.4 0.3-0.4 0-1.6-12.6-2.9-25.3-4.3-38q-1.1-9.5-2.2-18.9c-0.7-5.9-1.3-11.8-2.2-17.6-0.9-5.7-2.1-11.4-3.8-17-1.8-5.8-4.4-11.2-7.5-16.5-6.2-10.8-12.9-21.4-19.5-32-6.7-10.6-13.4-21.3-20.4-31.8q-1.3-1.9-2.6-3.8c-0.1-0.1 0.1-0.2 0.2-0.1z"/>
						</g>
					</g>
				</g>
				<g id="Layer">
					<g id="Layer">
						<path id="Layer" class="s5" d="m180.3 387.3c-2.4-0.2-66-25.9-67.7-28.3q-0.1-0.2-0.1-0.5c0-2.2 4.4-9.8 8-19.9 0.3-0.6 1.9-3.6 4.2-7.6 6.2-11 17.3-29.9 17.3-29.9l41.5 16.5-19.8 29.7-3.1 7.2c0 0 19.5 20.2 21.1 23 1.6 2.9 1.1 9.9-1.4 9.8z"/>
						<path id="Layer" class="s2" d="m180.3 387.3c-2.4-0.2-66-25.9-67.7-28.3q-0.1-0.2-0.1-0.5c0-2.2 4.4-9.8 8-19.9 0.3-0.6 1.9-3.6 4.2-7.6l39 16.3-3.1 7.2c0 0 19.5 20.2 21.1 23 1.6 2.9 1.1 9.9-1.4 9.8z"/>
						<g id="Layer">
							<path id="Layer" class="s6" d="m180.3 387.3c-2.4-0.2-66-25.9-67.7-28.3-0.7-1 2.1-9.6 7.9-20.4l40.1 15.9c0 0 19.5 20.2 21.1 23 1.7 2.9 1.1 9.9-1.4 9.8z"/>
							<g id="Layer">
								<g id="Layer">
									<path id="Layer" class="s4" d="m180.4 384.4c-10.3-4.4-52.2-21.2-62.7-24.8-0.1 0-0.1 0 0 0.1 10.1 4.6 52.1 21.1 62.7 24.9 0.2 0.1 0.2-0.1 0-0.1z"/>
									<path id="Layer" class="s4" d="m178.6 373.7c-2.4-1.1-5.3-0.9-7.2 0.1-1.9 0.9-3.8 2.4-4.6 4.6 0 0.1 0.1 0.1 0.2 0 2.2-3.8 7.3-5.9 11.6-4.5 0.1 0 0.1-0.1 0-0.2z"/>
									<path id="Layer" class="s4" d="m164.2 357.2c-4.1-1.7-9.6-2.2-13.5 0.2-0.2 0 0 0.3 0.1 0.2 4.6-0.4 8.7-0.4 13.3 0.1 0.3 0.1 0.4-0.4 0.1-0.5z"/>
									<path id="Layer" class="s4" d="m166.9 359.7c-4.1-1.7-9.5-2.2-13.5 0.2-0.1 0.1 0 0.3 0.1 0.3 4.6-0.4 8.7-0.5 13.3 0.1 0.3 0 0.4-0.5 0.1-0.6z"/>
									<path id="Layer" class="s4" d="m169.6 362.3c-4.1-1.8-9.5-2.2-13.5 0.1-0.1 0.1 0 0.3 0.1 0.3 4.6-0.4 8.7-0.4 13.3 0.1 0.3 0 0.4-0.4 0.1-0.5z"/>
									<path id="Layer" class="s4" d="m172.3 364.8c-4.1-1.7-9.5-2.2-13.5 0.2-0.1 0.1 0 0.3 0.2 0.3 4.5-0.5 8.6-0.5 13.2 0 0.3 0.1 0.4-0.4 0.1-0.5z"/>
									<path id="Layer" class="s4" d="m124.3 350.8c-4.7-1.9-7.6 5.4-2.9 7.2 4.7 1.9 7.6-5.4 2.9-7.2z"/>
								</g>
								<path id="Layer" fill-rule="evenodd" class="s4" d="m170.4 353.8c-3.4 2-7.6 2.5-11.4 3.4-0.4 0-0.6-0.3-0.6-0.7-0.1 0-0.1-0.1-0.1-0.2 1.7-3.4 4.8-7 8.1-9.1 2-1.3 5.3-1.9 6.7 0.7 1.4 2.4-0.7 4.8-2.7 5.9zm1.5-3.3c1.4-4.7-4-2.9-5.5-1.9-0.9 0.7-1.8 1.5-2.6 2.2-1.8 1.6-3.3 3.5-4.9 5.3 1.9-0.6 3.7-1 5.6-1.4 2.2-0.6 6.7-1.6 7.4-4.2z"/>
								<path id="Layer" fill-rule="evenodd" class="s4" d="m144.6 347.8c1.4-2.6 4.8-2 6.8-0.7 3.3 2.1 6.3 5.7 8 9.2 0 0.1 0 0.1-0.1 0.2 0 0.3-0.2 0.7-0.6 0.6-3.8-0.9-7.9-1.3-11.3-3.4-2-1.1-4.1-3.5-2.8-5.9zm8.6 6.8c1.9 0.5 3.8 0.9 5.6 1.4-1.6-1.8-3.1-3.6-4.8-5.2-0.9-0.8-1.7-1.6-2.7-2.2-1.4-1.1-6.9-2.9-5.5 1.8 0.8 2.6 5.2 3.6 7.4 4.2z"/>
							</g>
						</g>
					</g>
					<g id="Layer">
						<path id="Layer" class="s7" d="m166.9 345.7l-46.5-18.8c0 0 57.6-84.8 58.1-91.1 0.3-5.6-25-54.2-26-68.3-1.1-15.3 6.3-27.2 14.4-34.5l47.9 20.4c0 0-5 8.1-13 12.6 0 0 24.6 56.2 23.2 73.5-1.4 17.3-58.1 106.2-58.1 106.2z"/>
						<g id="Layer">
							<path id="Layer" class="s4" d="m168.9 336.8c-6.7-2.9-4.7-2.1-11.5-5-3.3-1.3-25-10.4-28.3-11.1-0.1 0-0.1 0.1-0.1 0.1 2.9 1.8 24.8 10.5 28.1 11.8 6.8 2.7 4.9 1.8 11.8 4.4 0.1 0.1 0.2-0.1 0-0.2z"/>
							<g id="Layer">
								<path id="Layer" class="s4" d="m209.7 164.9c-5 1.1-9.9 2.9-14.6 4.8-0.2 0.1-0.1 0.3 0.1 0.3 4.9-1.5 9.9-2.8 14.7-4.5 0.4-0.1 0.2-0.6-0.2-0.6z"/>
								<path id="Layer" class="s4" d="m204 163q-0.7 1.2-1.2 2.5c-0.3 0.7-0.6 1.4-0.6 2.2 0 0.1 0.2 0.2 0.2 0.1 0.6-0.6 0.9-1.4 1.3-2 0.4-0.8 0.8-1.6 1.2-2.4 0.2-0.6-0.6-0.9-0.9-0.4z"/>
								<path id="Layer" class="s4" d="m204.6 158.5q0.4-1.1 0.9-2.2c0.3-0.8 0.7-1.5 1-2.3 0-0.1 0.2-0.1 0.1 0.1-0.2 0.7-0.4 1.5-0.7 2.2q-0.3 1.2-0.7 2.3c-0.5 1.4-1.1 2.8-1.7 4.2 0.8 0 1.6 0 2.3-0.4 0.8-0.4 1.3-1.2 1.7-2 0.4-0.8 0.8-1.6 1.2-2.4 0.5-0.9 1-1.8 1.3-2.8 0.1-0.1 0.3-0.1 0.2 0.1-0.7 2-1.4 4-2.5 5.9-0.5 0.7-0.8 1.5-1.6 1.8-0.9 0.3-1.9 0.2-2.8 0.1-0.1 0.1-0.2 0-0.2-0.1 0.4-1.6 0.9-3.1 1.5-4.5z"/>
							</g>
							<path id="Layer" class="s4" d="m202.6 167.8c1.7 3.6 3.2 7.2 4.8 10.8q2.3 5.3 4.4 10.7 4.3 10.8 7.7 22 1.6 5.5 3 11.1c1 3.8 1.9 7.5 2.2 11.4 0.4 3.8 0.2 7.7-0.9 11.4-1.1 3.8-2.5 7.1-4.3 10.6-1 2.2-1.4 1.9-0.8 0.8 1.4-3.1 5.1-12.5 4.9-20.4-0.2-3.8-1-7.5-1.8-11.2q-1.3-5.7-3-11.3c-2.1-7.3-4.6-14.5-7.2-21.7-1.5-4-3.1-8-4.5-12-1.5-4.1-3.1-7.7-4.7-12.1-0.1-0.1 0.1-0.2 0.2-0.1z"/>
							<path id="Layer" class="s4" d="m167.3 155.9c0.8-0.3 2 0.2 2.8 0.3q1.6 0.3 3.3 0.3 1.6 0.1 3.3-0.1c1.1-0.1 2.2-0.2 3.1-0.8 1.6-1 2.9-2.7 4-4.2 1.2-1.7 2.4-3.6 3.1-5.5 0-0.1 0.2 0 0.2 0.1-0.4 1.1-0.6 2.2-1.1 3.3-0.4 1-0.9 2-1.5 3-1.1 1.7-2.3 3.6-4.2 4.7-1.9 1.1-4.4 1-6.5 0.9q-1.9-0.1-3.7-0.5c-0.9-0.2-2.4-0.4-2.9-1.1-0.1-0.2-0.1-0.4 0.1-0.4z"/>
							<path id="Layer" class="s4" d="m133.7 318q11.4-17.3 22.5-34.9 11-17.7 21.7-35.6c1.7-2.8 3.7-5.7 4.8-8.8 1.2-3.5 0.5-6.8-0.5-10.2-2-6.1-4.5-12.1-7.2-18-2.7-5.9-5.5-11.7-8.4-17.6-2.8-5.7-5.8-11.5-7.9-17.6-2.1-5.8-2.9-11.8-1.3-17.9 1.6-5.9 4.9-11.3 8.4-16.3q1.4-2 2.8-4c0.1-0.1 0.3 0.1 0.2 0.2-3.9 5.2-7.7 10.7-9.9 16.8-1.1 3.1-1.9 6.2-1.9 9.5-0.1 3.3 0.5 6.5 1.5 9.6 1.9 6.1 4.8 11.9 7.6 17.6 2.8 5.8 5.7 11.6 8.4 17.5 2.8 6 5.4 12 7.5 18.1 0.9 2.8 2 5.7 1.9 8.6-0.1 3.3-1.6 6.2-3.2 8.9-7 11.8-14.2 23.6-21.5 35.2q-11 17.5-22.4 34.8-1.4 2.2-2.9 4.3c-0.1 0.2-0.4 0-0.2-0.2z"/>
						</g>
					</g>
				</g>
			</g>
			<g id="Layer">
				<g id="Layer">
					<path id="Layer" class="s5" d="m217.5 99.5c4.3 9.5 26.2 22.6 36.4 24 7.4 1 29.8 1.3 37.5 0.2 8.9-1.4 2.1-25.7-3.2-25.1-14.6 1.8-27 3.7-30.9 3.7-4.8 0-30.5-8.3-33.6-9.5-7.6-2.8-8.6 1.3-6.2 6.7z"/>
					<g id="Layer">
						<g id="Layer">
							<path id="Layer" class="s8" d="m217.6 102c5.5 8.1 23.7 21.3 23.7 21.3l2.6-5.6 8.3-18.5c0 0-16.7-5.2-27.7-7.6q-2.2-0.5-3.9-0.6c-7.1-0.3-7.7 4-3 11z"/>
						</g>
						<path id="Layer" class="s4" d="m217.6 102c5.5 8.1 23.7 21.3 23.7 21.3l2.6-5.6c-6.8-7.8-17.3-19.8-23.3-26.7-7.1-0.3-7.7 4-3 11z"/>
						<path id="Layer" class="s4" d="m238.1 119.6c1.3-3.4 7.5-17.1 9.1-20 0.1-0.2 0.2-0.2 0.1 0-3.9 10.3-7.6 16.8-9.1 20.1 0 0-0.2 0-0.1-0.1z"/>
					</g>
					<g id="Layer">
						<path id="Layer" class="s5" d="m285.5 98.9c8.9-1.2 19.9-3.1 29.2 0.8 1.8 0.8 2.5 2.1 2.5 2.1 4.2 1.7 4.6 4.2 4.6 4.2 3.5 2.8 3.6 5.4 3.6 5.4 0 0 4.9 2.1 4.1 5.2-0.8 3.6-7.5 0-12.4 0.3-11.3 0.7-27.1 4.9-30.3 5.4z"/>
						<path id="Layer" class="s4" d="m304.8 109.4c3.3-0.1 6.5-0.4 9.9-0.1 3.6 0.4 7 1.3 10.6 2.2 0.1 0 0.1-0.1 0-0.2-6.1-2.6-14-3.2-20.5-2.1-0.2 0.1-0.2 0.2 0 0.2z"/>
						<path id="Layer" class="s4" d="m303.4 102.7c3.2 0 8.9 0.1 18.4 3.4 0 0 0 0 0 0-5.9-3-11.9-4-18.4-3.6-0.2 0-0.2 0.2 0 0.2z"/>
						<path id="Layer" class="s4" d="m302.7 99c5.5 0.3 8.9 1.2 14.4 2.9 0.1 0 0.1-0.1 0.1-0.1-6.1-2.5-8.6-2.8-14.5-3-0.2 0-0.2 0.2 0 0.2z"/>
						<path id="Layer" class="s5" d="m303.6 118.6c-1.4 0.7-1.1 1.5 1.6 2.1 2.8 0.6 14.1 0.8 13.7 4.8-0.4 3.9-16.4 3.4-20.9 2-4.4-1.4-11.2-5.2-11.2-5.2 3.2-0.5 10.6-2.5 16.8-3.7z"/>
					</g>
				</g>
				<g id="Layer">
					<path id="Layer" class="s4" d="m229.4 114.6q-0.1 2.6-0.5 5.2 0.1-0.1 0.1-0.2c0.3-0.9 0.7-1.8 1.1-2.7 0 0 0.1 0 0.1 0-0.2 1-0.6 1.9-0.9 2.8q-0.3 0.7-0.5 1.3-0.2 1.1-0.5 2.3c-0.3 1.4-1.6 7.5-1.9 8.5-0.1 0.2-0.3 0.2-0.3-0.1 0.1-1.1 1.2-7.4 1.4-8.9 0.5-2.7 1.1-5.5 1.8-8.2 0-0.1 0.1 0 0.1 0z"/>
					<g id="Layer">
						<path id="Layer" class="s8" d="m219 160.1c-2.7 1.3-6.1 3.5-21.6 0.4q-1.5-0.3-2.9-0.7c-14.6-4.4-32-21.5-33-22.7 0 0 23.1-37.4 52.6-49.2 3.7-1.4 9.7 1.4 13.1 4.9 1.2 1.2 3.7 10.4 2.7 17.9-1 7.4-8.2 48-10.9 49.4z"/>
						<g id="Layer">
							<g id="Layer">
								<path id="Layer" class="s2" d="m216.9 110.3c0.1 0.8 0 1.6-0.1 2.4-0.1 0.8-0.2 1.5-0.5 2.3-0.1-0.8-0.1-1.6 0-2.4 0.2-0.8 0.3-1.5 0.6-2.3z"/>
							</g>
							<g id="Layer">
								<path id="Layer" class="s2" d="m206.8 135.8c0.1 0.8 0.1 1.6 0 2.4-0.1 0.7-0.3 1.5-0.6 2.3-0.1-0.8 0-1.6 0.1-2.4 0.1-0.8 0.2-1.5 0.5-2.3z"/>
							</g>
							<g id="Layer">
								<path id="Layer" class="s2" d="m189.7 116.5c0.1 0.8 0.1 1.6 0 2.4-0.2 0.8-0.3 1.6-0.6 2.3-0.1-0.8 0-1.6 0.1-2.4 0.1-0.7 0.2-1.5 0.5-2.3z"/>
							</g>
							<g id="Layer">
								<path id="Layer" class="s2" d="m223.5 134.5c0.1 0.8 0 1.6-0.1 2.4-0.1 0.8-0.2 1.5-0.5 2.3-0.1-0.8-0.1-1.6 0-2.4 0.2-0.8 0.3-1.5 0.6-2.3z"/>
							</g>
							<g id="Layer">
								<path id="Layer" class="s2" d="m201.5 113.2c0.8 0 1.6 0 2.4 0.1 0.8 0.1 1.5 0.3 2.3 0.6-0.8 0.1-1.6 0-2.4-0.1-0.7-0.1-1.5-0.3-2.3-0.6z"/>
							</g>
							<g id="Layer">
								<path id="Layer" class="s2" d="m182.1 131.7c0.8-0.1 1.6-0.1 2.4 0 0.8 0.1 1.5 0.3 2.3 0.6-0.8 0.1-1.6 0-2.4-0.1-0.8-0.1-1.5-0.2-2.3-0.5z"/>
							</g>
							<g id="Layer">
								<path id="Layer" class="s2" d="m205 151.6c0.8-0.1 1.5 0 2.3 0.1 0.8 0.1 1.6 0.2 2.3 0.5-0.8 0.1-1.6 0.1-2.3 0-0.8-0.2-1.6-0.3-2.3-0.6z"/>
							</g>
							<g id="Layer">
								<path id="Layer" class="s2" d="m176.1 144.3c0.8 0 1.6 0 2.4 0.1 0.8 0.1 1.5 0.3 2.3 0.6-0.8 0.1-1.6 0-2.4-0.1-0.7-0.1-1.5-0.3-2.3-0.6z"/>
							</g>
							<g id="Layer">
								<path id="Layer" class="s2" d="m216.8 92.4c0.8-0.1 1.6 0 2.3 0.1 0.8 0.1 1.6 0.2 2.3 0.6-0.8 0-1.6 0-2.3-0.1-0.8-0.1-1.6-0.3-2.3-0.6z"/>
							</g>
							<g id="Layer">
								<path id="Layer" class="s2" d="m211.1 98.8c-0.5 0.6-1.1 1.1-1.7 1.6-0.6 0.5-1.3 0.9-2 1.2 0.5-0.6 1.1-1.1 1.7-1.6 0.6-0.5 1.3-0.9 2-1.2z"/>
							</g>
							<g id="Layer">
								<path id="Layer" class="s2" d="m180.3 116.9c-0.5 0.6-1.1 1.1-1.7 1.6-0.6 0.5-1.3 0.9-2 1.2 0.5-0.6 1.1-1.1 1.7-1.6 0.6-0.4 1.3-0.9 2-1.2z"/>
							</g>
							<g id="Layer">
								<path id="Layer" class="s2" d="m218.8 125.1c-0.5 0.6-1.1 1.1-1.8 1.6-0.6 0.5-1.2 0.9-2 1.2 0.5-0.6 1.1-1.1 1.7-1.6 0.7-0.5 1.3-0.9 2.1-1.2z"/>
							</g>
							<g id="Layer">
								<path id="Layer" class="s2" d="m193.9 140.8c-0.5 0.6-1.1 1.1-1.7 1.6-0.7 0.5-1.3 0.9-2.1 1.2 0.5-0.6 1.1-1.1 1.7-1.6 0.7-0.5 1.3-0.9 2.1-1.2z"/>
							</g>
							<g id="Layer">
								<path id="Layer" class="s2" d="m228.3 103.7c-0.5 0.6-1.1 1.1-1.7 1.6-0.6 0.5-1.3 0.9-2 1.2 0.5-0.6 1.1-1.1 1.7-1.6 0.6-0.5 1.3-0.9 2-1.2z"/>
							</g>
							<g id="Layer">
								<path id="Layer" class="s2" d="m227.8 121.8c-0.6-0.5-1.1-1.1-1.6-1.7-0.5-0.6-0.9-1.3-1.2-2 0.6 0.5 1.1 1.1 1.6 1.7 0.4 0.6 0.9 1.3 1.2 2z"/>
							</g>
							<g id="Layer">
								<path id="Layer" class="s2" d="m172.3 134.4c-0.6-0.6-1.1-1.2-1.6-1.8-0.5-0.6-0.9-1.3-1.2-2 0.6 0.5 1.1 1.1 1.6 1.7 0.4 0.7 0.9 1.3 1.2 2.1z"/>
							</g>
							<g id="Layer">
								<path id="Layer" class="s2" d="m221.1 149.3c-0.7-0.6-1.2-1.2-1.7-1.8-0.4-0.6-0.9-1.3-1.2-2 0.6 0.5 1.2 1.1 1.6 1.7 0.5 0.7 0.9 1.3 1.3 2.1z"/>
							</g>
							<g id="Layer">
								<path id="Layer" class="s2" d="m196.6 106.8c-0.6-0.5-1.1-1.1-1.6-1.7-0.5-0.7-0.9-1.3-1.2-2.1 0.6 0.6 1.1 1.2 1.6 1.8 0.5 0.6 0.9 1.3 1.2 2z"/>
							</g>
							<g id="Layer">
								<path id="Layer" class="s2" d="m197.1 157.7c-0.7-0.5-1.2-1.1-1.7-1.7-0.4-0.6-0.9-1.3-1.2-2 0.6 0.5 1.2 1.1 1.6 1.7 0.5 0.6 0.9 1.3 1.3 2z"/>
							</g>
							<g id="Layer">
								<path id="Layer" class="s2" d="m201.2 127.7c-0.6-0.5-1.1-1.1-1.6-1.7-0.5-0.7-0.9-1.3-1.2-2.1 0.6 0.5 1.1 1.1 1.6 1.8 0.4 0.6 0.9 1.2 1.2 2z"/>
							</g>
						</g>
					</g>
				</g>
				<g id="Layer">
					<g id="Layer">
						<g id="Layer">
							<path id="Layer" class="s5" d="m221.7 102.7c-3.7-0.7-7.3-8.4-7.7-13.7-0.1-0.3 1.7-3.2 3.7-6.8 1.3-2.1 2.6-4.6 3.6-6.9 0.2-0.5 1.4 1.1 1.4 1.1l2.7 2.1 8.9 6.8c0 0-3.6 4.2-5.4 8.2q-0.2 0.5-0.3 1 0 0.1 0 0.2c-0.6 1.9-3.2 8.7-6.9 8z"/>
						</g>
						<path id="Layer" class="s4" d="m228.6 94.5q0 0.1 0 0.2-0.8-0.2-1.6-0.6c-9.7-4.5-5.4-17.5-5.4-17.5l3.8 1.9 8.9 6.8c0 0-3.6 4.2-5.4 8.2q-0.2 0.5-0.3 1z"/>
					</g>
					<g id="Layer">
						<path id="Layer" class="s4" d="m244.4 57.6c0 0 4.4 2.8 4.5 7.8 0 5-2 9.9-2.5 10.1-0.4 0.1-2-17.9-2-17.9z"/>
						<g id="Layer">
							<path id="Layer" class="s5" d="m222.4 60.2c-2.6 5.2-2.5 21.8 0.8 26 4.9 6.2 14.1 8.4 19.7 2.2 5.5-5.9 4.9-27.4 1.1-31.5-5.7-5.9-17.6-4.5-21.6 3.3z"/>
						</g>
						<path id="Layer" class="s9" d="m222.9 86"/>
						<g id="Layer">
							<g id="Layer">
								<path id="Layer" class="s4" d="m236.6 73.4c0 0-0.1 0.1-0.1 0.1 0 1.2-0.1 2.5-1.1 2.9 0 0 0 0 0 0 1.3-0.2 1.4-1.9 1.2-3z"/>
								<path id="Layer" class="s4" d="m235.5 72.3c-1.8-0.1-1.8 3.5-0.2 3.6 1.7 0.1 1.8-3.5 0.2-3.6z"/>
							</g>
							<g id="Layer">
								<path id="Layer" class="s4" d="m242.7 73.4c0-0.1 0.1 0 0.1 0.1 0 1.1 0.1 2.4 1.1 2.8 0 0 0 0.1 0 0.1-1.2-0.2-1.4-2-1.2-3z"/>
								<path id="Layer" class="s4" d="m243.8 72.2c1.8-0.1 1.9 3.6 0.2 3.7-1.7 0.1-1.8-3.6-0.2-3.7z"/>
							</g>
							<path id="Layer" class="s4" d="m234.4 69.5c0.5-0.1 0.9-0.3 1.4-0.5 0.5-0.2 1-0.3 1.4-0.7 0.2-0.3 0.1-0.7-0.1-1-0.6-0.5-1.3-0.4-2-0.2-0.7 0.2-1.2 0.6-1.6 1.2-0.4 0.6 0.2 1.4 0.9 1.2z"/>
							<path id="Layer" class="s4" d="m245 71.1c-0.5-0.1-0.9-0.2-1.4-0.4-0.6-0.1-1-0.2-1.4-0.7-0.2-0.2-0.2-0.7 0-0.9 0.6-0.5 1.3-0.5 2-0.3 0.7 0.1 1.2 0.5 1.6 1.1 0.5 0.5-0.1 1.3-0.8 1.2z"/>
							<path id="Layer" class="s4" d="m234 84.1c0.3 0.3 0.5 0.7 0.9 0.7 0.4 0 0.9-0.1 1.2-0.3 0.1 0 0.1 0.1 0.1 0.1-0.3 0.4-0.9 0.7-1.4 0.6-0.6-0.1-0.8-0.6-0.9-1 0-0.1 0.1-0.1 0.1-0.1z"/>
							<g id="Layer">
								<path id="Layer" class="s4" d="m240.5 79.3c0 0 0.1 1.7 0 2.5 0 0-2.2-0.4-4.6 0.1-0.4 0.1-0.3-0.2 0.1-0.4 0.8-0.3 1.9-0.7 3.9-0.5 0.1-0.2-0.1-2.6 0-2.6 0.4 0 1.3 0.4 1.7 0.6 0-3.5-0.5-7-0.5-10.5 0-0.1 0.2-0.1 0.2 0 0.9 3.6 1 7.6 1.1 11.3 0 0.4-1.6-0.3-1.9-0.5z"/>
							</g>
							<g id="Layer">
								<path id="Layer" class="s4" d="m238.3 81.2c0 0-0.8 1.9-2.1 2.5-1.5 0.6-2-0.8-0.5-2 0.8-0.6 2.6-0.5 2.6-0.5z"/>
								<path id="Layer" class="s10" d="m236.7 83.4q-0.2 0.2-0.5 0.3c-1.4 0.5-2-0.6-0.8-1.7 0.7 0.1 1.6 0.3 1.3 1.4z"/>
							</g>
						</g>
						<g id="Layer">
							<path id="Layer" class="s4" d="m221.7 74.3c1.8 0.6 3.9-4.9 4.5-7 0.5-1.9 1.1-7.8 1.2-8.2 0.1-0.4 8 5.2 12.6 3.9 4.6-1.4 7.7-5.5 7.8-7.4 0-2-5.7-6.9-10.7-7.1-4.9-0.3-11.6 6-11.6 6 0 0 2.3-2.7 2.2-2.9-0.1-0.2-3.3 1-3.9 3.3 0 0 0.7-2.8 0.4-2.9-0.2 0-2.7 2.4-2.2 4.3 0 0-2.8 2.5-3.1 5.2-0.3 2.7 0.6 12.2 2.8 12.8z"/>
							<path id="Layer" class="s4" d="m243.3 62c-1.4 0.7-2.8 1.4-4.4 1.6-1.6 0.2-3.4-0.2-4.9-0.8-1.6-0.6-3.1-1.5-4.4-2.6-1.2-0.9-2.2-2.1-3.4-2.9-0.3-0.2-0.7 0.2-0.5 0.5 1.9 2.8 5.2 5.1 8.4 6.1 3.3 1.1 6.5 0.4 9.2-1.8 0-0.1 0-0.1 0-0.1z"/>
						</g>
						<g id="Layer">
							<path id="Layer" class="s5" d="m223.6 73.8c0 0-2.8-5.7-5.4-4.8-2.6 0.9-1 8.9 1.6 10.4 2.6 1.4 4-1 4-1z"/>
							<path id="Layer" class="s4" d="m218.7 71.3c0 0-0.1 0 0 0.1 1.8 1 2.5 3 3 5-0.5-0.8-1.2-1.3-2.3-0.8 0 0 0 0.1 0 0.1 0.9 0 1.4 0.2 1.9 0.9 0.3 0.5 0.4 1.1 0.6 1.7 0.1 0.2 0.4 0.1 0.4-0.1q0 0 0 0c0.4-2.5-1-6.3-3.6-6.9z"/>
						</g>
					</g>
				</g>
				<g id="Layer">
					<g id="Layer">
						<path id="Layer" class="s5" d="m204.8 99.6c-1.9 11.3 10.3 49.5 18.2 56.6 11.7 10.6 33.4 17.6 41.2 19.8 3.4 1 12.9-23 9.4-24.6-7.4-3.4-30.4-10.6-32.6-12.4-2.1-1.9-15.4-20.9-21.3-31.9-7.8-14.7-13.9-13.3-14.9-7.5z"/>
						<g id="Layer">
							<path id="Layer" class="s5" d="m267.8 149.3c0 0 10.2 2.6 16.8 4.6 3.7 1.1 9.8 3.6 12.1 5.7 3.5 3 16.1 18.2 12.5 21.3-3.3 2.8-12.4-11.5-12.4-11.5 0 0 10.5 13.6 6 16.3-4.6 2.7-12.8-14.9-12.8-14.9 0 0 10.5 14.3 5.4 16.3-3.9 1.6-12.2-14-12.2-14 0 0 8.9 12.4 5 14.1-4.3 2-12.9-11.9-12.9-11.9-10.7 2.8-17-0.3-21.1-3-1.1-0.6 13.6-23 13.6-23z"/>
							<g id="Layer">
								<path id="Layer" class="s4" d="m293.5 164.4c1.2 1.6 2.6 3.1 3.7 4.8q1.8 2.5 3.3 5.2c2.4 4.3 3.2 7.4 3.1 7.2-1.7-4.4-5.7-10.4-6.9-12.1-1.1-1.7-2.2-3.4-3.3-5.1 0 0 0 0 0.1 0z"/>
								<path id="Layer" class="s4" d="m287.3 168.4c2.3 1.8 6.9 8.3 8.7 12.7 0.1 0.2 0 0.2-0.1 0-1.4-2.1-7.1-10.5-8.6-12.6 0-0.1 0-0.1 0-0.1z"/>
								<path id="Layer" class="s4" d="m281.5 171c2.5 2.5 4.7 6 6.4 10 0.1 0.2-0.1 0.1-0.2 0-2.1-3.4-3.7-6.1-6.3-9.9-0.1-0.1 0-0.2 0.1-0.1z"/>
							</g>
						</g>
					</g>
					<g id="Layer">
						<path id="Layer" class="s8" d="m216 100.4c-9.2-12.9-14.6-8.1-12.8 5.9 1.7 13.1 6.3 28.7 6.3 28.7l23.1-11.2c0 0-10.8-15.1-16.6-23.4z"/>
						<g id="Layer">
							<g id="Layer">
								<path id="Layer" class="s2" d="m221.5 105.5c0.4 0.7 0.6 1.5 0.7 2.2 0.1 0.8 0.2 1.6 0.2 2.4-0.4-0.7-0.6-1.5-0.7-2.3-0.1-0.7-0.2-1.5-0.2-2.3z"/>
							</g>
							<g id="Layer">
								<path id="Layer" class="s2" d="m207.9 113.3c0.8-0.3 1.5-0.5 2.3-0.6 0.8-0.2 1.5-0.2 2.4-0.2-0.8 0.3-1.6 0.5-2.3 0.7-0.8 0.1-1.6 0.2-2.4 0.1z"/>
							</g>
							<g id="Layer">
								<path id="Layer" class="s2" d="m208.5 93.2c-0.3 0.8-0.7 1.5-1.1 2.1-0.5 0.6-1 1.3-1.6 1.8 0.3-0.8 0.7-1.4 1.1-2.1 0.5-0.6 1-1.2 1.6-1.8z"/>
							</g>
							<g id="Layer">
								<path id="Layer" class="s2" d="m228 119.4c-0.3 0.7-0.8 1.4-1.2 2-0.5 0.7-0.9 1.3-1.6 1.8 0.3-0.8 0.7-1.4 1.2-2.1 0.5-0.6 0.9-1.2 1.6-1.7z"/>
							</g>
							<g id="Layer">
								<path id="Layer" class="s2" d="m212 127.2c-0.7-0.3-1.4-0.7-2.1-1.2-0.6-0.4-1.2-0.9-1.7-1.5 0.7 0.3 1.4 0.7 2 1.1 0.7 0.5 1.3 1 1.8 1.6z"/>
							</g>
						</g>
						<path id="Layer" class="s4" d="m219 104.3q1.9 2.5 3.8 5-0.5-1.3-0.9-2.6c0 0 0.1 0 0.1 0 0.3 0.7 0.5 1.3 0.8 2q0.2 0.5 0.4 0.9 0 0.2 0 0.3 1.5 1.9 2.9 3.9 1.7 2.3 3.4 4.7c1.1 1.7 2.2 3.6 3.4 5.2 0.1 0.2-2.1 1-2.3 1.1-0.2 0.2-0.3 0-0.1-0.1 0.2-0.1 1.9-1.1 1.9-1.1-1.1-1.6-2.3-3.1-3.5-4.7q-1.7-2.4-3.4-4.7c-2.2-3.3-4.3-6.6-6.5-9.9-0.1 0 0-0.1 0 0z"/>
						<path id="Layer" class="s4" d="m203.8 115.6c0.3 0.6 0.7 1.3 1 2q0.2 0.4 0.4 0.9-0.8-3.8-1.6-7.5c0 0 0.1-0.1 0.1 0 1.1 4 2.1 8.1 3.1 12.1 0.9 3.9 2.1 7.8 2.6 11.8 0.3-0.1 2.1-0.9 2.2-0.7 0 0.1-2.4 1.2-2.4 1.1-1.3-3.9-2.1-8.2-3-12.2q-0.4-1.7-0.7-3.4c-0.3-0.7-0.6-1.3-0.9-2-0.3-0.7-0.6-1.4-0.9-2.1 0-0.1 0.1-0.1 0.1 0z"/>
						<path id="Layer" class="s4" d="m209.9 131.2c3.2-1.9 16.6-8.8 19.6-10.1 0.2-0.1 0.3 0 0.1 0.2-9.5 5.6-16.4 8.4-19.6 10-0.1 0-0.2-0.1-0.1-0.1z"/>
					</g>
				</g>
			</g>
		</g>
	</g>
	<g id="Folder">
		<g id="Layer">
			<g id="Layer">
				<g id="Layer">
					<path id="Layer" class="s8" d="m576.3 394.1h-304.7l44.1-249.9h304.7z"/>
					<path id="Layer" class="s8" d="m420 118.3h-99.7l-4.6 25.9h106.7z"/>
				</g>
				<g id="Layer" style="opacity: .1">
					<path id="Layer" class="s11" d="m576.3 394.1h-304.7l44.1-249.9h304.7z"/>
					<path id="Layer" class="s11" d="m420 118.3h-99.7l-4.6 25.9h106.7z"/>
				</g>
			</g>
			<g id="Layer">
				<g id="Layer">
					<path id="Layer" class="s4" d="m309.5 128.9c-0.4-1.5-0.5-2.9-0.5-4.4 0-1.4 0.1-2.9 0.5-4.3 0.4 1.4 0.5 2.9 0.5 4.3 0 1.5-0.1 2.9-0.5 4.4z"/>
				</g>
				<g id="Layer">
					<path id="Layer" class="s4" d="m300.6 131.4c-1-1-1.8-2.2-2.6-3.5-0.7-1.2-1.3-2.5-1.7-4 1.1 1.1 1.9 2.3 2.6 3.5 0.7 1.3 1.4 2.6 1.7 4z"/>
				</g>
				<g id="Layer">
					<path id="Layer" class="s4" d="m294.2 138.1c-1.4-0.4-2.7-1-4-1.8-1.2-0.7-2.4-1.5-3.5-2.6 1.5 0.4 2.8 1.1 4 1.8 1.3 0.7 2.5 1.5 3.5 2.6z"/>
				</g>
				<g id="Layer">
					<path id="Layer" class="s4" d="m292 147c-1.4 0.4-2.9 0.5-4.3 0.5-1.5 0-2.9-0.1-4.4-0.5 1.5-0.3 2.9-0.4 4.4-0.5 1.4 0.1 2.9 0.2 4.3 0.5z"/>
				</g>
				<g id="Layer">
					<path id="Layer" class="s4" d="m294.6 155.9c-1.1 1.1-2.3 1.9-3.5 2.6-1.3 0.7-2.6 1.4-4 1.8 1-1.1 2.2-1.9 3.5-2.6 1.2-0.8 2.5-1.4 4-1.8z"/>
				</g>
				<g id="Layer">
					<path id="Layer" class="s4" d="m301.2 162.3c-0.3 1.5-1 2.8-1.7 4-0.7 1.3-1.5 2.5-2.6 3.5 0.4-1.4 1-2.7 1.7-4 0.8-1.2 1.6-2.4 2.6-3.5z"/>
				</g>
				<g id="Layer">
					<path id="Layer" class="s4" d="m310.2 164.5c0.4 1.5 0.5 2.9 0.5 4.4 0 1.4-0.1 2.9-0.5 4.3-0.4-1.4-0.5-2.9-0.5-4.3 0-1.5 0.1-2.9 0.5-4.4z"/>
				</g>
				<g id="Layer">
					<path id="Layer" class="s4" d="m319.1 161.9c1 1.1 1.8 2.3 2.6 3.6 0.7 1.2 1.3 2.5 1.7 4-1.1-1.1-1.9-2.3-2.6-3.5-0.7-1.3-1.4-2.6-1.7-4.1z"/>
				</g>
				<g id="Layer">
					<path id="Layer" class="s4" d="m325.5 155.3c1.4 0.4 2.7 1 4 1.7 1.2 0.8 2.4 1.6 3.5 2.6-1.5-0.3-2.8-1-4-1.7-1.3-0.7-2.5-1.5-3.5-2.6z"/>
				</g>
				<g id="Layer">
					<path id="Layer" class="s4" d="m327.7 146.3c1.4-0.4 2.9-0.4 4.3-0.5 1.5 0.1 2.9 0.1 4.4 0.5-1.5 0.4-2.9 0.5-4.4 0.5-1.4 0-2.9-0.1-4.3-0.5z"/>
				</g>
				<g id="Layer">
					<path id="Layer" class="s4" d="m325.1 137.5c1.1-1.1 2.3-1.9 3.5-2.6 1.3-0.7 2.6-1.4 4-1.8-1 1.1-2.2 1.9-3.5 2.6-1.2 0.8-2.5 1.4-4 1.8z"/>
				</g>
				<g id="Layer">
					<path id="Layer" class="s4" d="m318.5 131.1c0.3-1.5 1-2.8 1.7-4 0.7-1.3 1.5-2.5 2.6-3.5-0.4 1.4-1 2.7-1.7 4-0.8 1.2-1.6 2.4-2.6 3.5z"/>
				</g>
			</g>
			<path id="Layer" class="s8" d="m575.9 394.1h-305.4l-43.3-240.8h305.3z"/>
			<g id="Layer">
				<path id="Layer" class="s4" d="m333 300.5c-7 0-12.7-5.7-12.7-12.7 0-7 5.7-12.7 12.7-12.7 7 0 12.7 5.7 12.7 12.7 0 7-5.7 12.7-12.7 12.7z"/>
				<path id="Layer" class="s4" d="m433.3 300.5c-7 0-12.7-5.7-12.7-12.7 0-7 5.7-12.7 12.7-12.7 7 0 12.7 5.7 12.7 12.7 0 7-5.7 12.7-12.7 12.7z"/>
				<path id="Layer" class="s4" d="m401.4 302.5l-0.7-1.3c-0.1-0.2-6.6-12.3-19.8-12.3-12.1 0-15 11.4-15.1 11.9l-0.4 1.5-2.9-0.7 0.4-1.5c0-0.1 3.5-14.2 18-14.2 15 0 22.1 13.3 22.4 13.9l0.7 1.3z"/>
			</g>
		</g>
	</g>
	<g id="Fly">
		<g id="Layer">
			<g id="Layer">
				<g id="Layer">
					<path id="Layer" fill-rule="evenodd" class="s12" d="m555.6 286.3q1-0.2 2-0.4"/>
					<path id="Layer" fill-rule="evenodd" class="s13" d="m561.4 284.7c15.3-5.1 28.1-17.2 29.3-31.2 2.7-31-35.1-48.2-31.2-84 3.7-34.2 39.6-36.6 53.9-31.9 15.9 5.2 10.5 20.5-3.9 18.5-24.9-3.4-40.6-30.5-28.7-61.2 8.8-22.9 30.8-31.6 39.8-34.2"/>
					<path id="Layer" fill-rule="evenodd" class="s12" d="m622.5 60.1c1.3-0.3 2-0.4 2-0.4"/>
				</g>
			</g>
			<g id="Layer">
				<path id="Layer" class="s4" d="m640.3 54.2c-2.5-7.9-19.6-5.1-16.3 5.2 3.4 10.4 18.9 2.7 16.3-5.2z"/>
				<g id="Layer">
					<path id="Layer" class="s0" d="m614.7 51c0.2-3.5 5-6.2 11.8-4.9 6.8 1.2 13.2 5.8 13.2 5.8 0 0-6.7 4.1-13.6 4.8-6.9 0.8-11.5-2.2-11.4-5.7z"/>
					<g id="Layer">
						<path id="Layer" class="s4" d="m639.7 51.9c-3.5 0-7-0.1-10.6-0.2-3.5-0.2-7-0.3-10.6-0.6 3.6 0 7.1 0.1 10.6 0.2 3.6 0.2 7.1 0.3 10.6 0.6z"/>
						<path id="Layer" class="s4" d="m621.6 47.9c1 0.5 2 1 2.9 1.6 0.9 0.6 1.9 1.2 2.7 1.9-1-0.4-1.9-1-2.9-1.6-0.9-0.6-1.9-1.2-2.7-1.9z"/>
						<path id="Layer" class="s4" d="m630.8 51.6c-0.8 0.7-1.8 1.4-2.8 2-1 0.6-2 1.3-3 1.8 0.9-0.8 1.8-1.4 2.8-2.1 1-0.6 2-1.2 3-1.7z"/>
						<path id="Layer" class="s4" d="m631.9 49.6c0.5 0.2 0.9 0.6 1.4 0.9 0.4 0.4 0.8 0.7 1.2 1.2-0.6-0.2-1-0.6-1.4-0.9-0.5-0.4-0.9-0.7-1.2-1.2z"/>
					</g>
				</g>
				<g id="Layer">
					<path id="Layer" class="s0" d="m621.2 71.5c2.2 2.8 7.6 2.1 12.4-2.9 4.8-4.9 7.4-12.4 7.4-12.4 0 0-7.9 0.6-13.9 4-6 3.5-8 8.6-5.9 11.3z"/>
					<g id="Layer">
						<path id="Layer" class="s4" d="m641 56.2c-2.9 2-5.7 4.2-8.5 6.3-2.8 2.2-5.6 4.4-8.3 6.7 2.9-2 5.7-4.2 8.5-6.4 2.8-2.1 5.6-4.3 8.3-6.6z"/>
						<path id="Layer" class="s4" d="m628.6 70c0.5-0.9 1-2 1.4-3 0.4-1 0.8-2.1 1.1-3.1-0.6 0.9-1 2-1.4 3-0.4 1-0.8 2-1.1 3.1z"/>
						<path id="Layer" class="s4" d="m634 61.6c-1.2 0-2.4 0-3.5 0-1.2 0.1-2.4 0.2-3.5 0.4 1.1 0.1 2.3 0.1 3.5 0 1.1-0.1 2.3-0.1 3.5-0.4z"/>
						<path id="Layer" class="s4" d="m635.9 62.6c0.3-0.5 0.5-1 0.6-1.5 0.2-0.6 0.3-1.1 0.3-1.7-0.3 0.5-0.4 1-0.6 1.6-0.1 0.5-0.3 1.1-0.3 1.6z"/>
					</g>
				</g>
				<path id="Layer" class="s14" d="m640.3 54.2c-1.6 0.5-3.2-0.4-3.8-2-0.5-1.5 0.4-3.2 2-3.7 1.6-0.5 3.2 0.3 3.7 1.9 0.6 1.6-0.3 3.3-1.9 3.8z"/>
				<path id="Layer" class="s14" d="m642.2 59.9c-1.6 0.5-3.3-0.4-3.8-2-0.5-1.5 0.3-3.2 1.9-3.7 1.6-0.5 3.3 0.3 3.8 1.9 0.5 1.6-0.4 3.3-1.9 3.8z"/>
			</g>
		</g>
	</g>
	<g id="Speech_Bubble">
		<g id="Layer">
			<g id="Layer">
				<path id="Layer" class="s2" d="m314.3 57.3c-1.4 13.7-13.7 23.7-27.4 22.2-5.5-0.6-10.4-2.9-14.2-6.4l-12.5 1.8 6.2-10.8c-1.5-3.6-2.1-7.7-1.7-12 1.5-13.7 13.7-23.6 27.4-22.2 13.7 1.5 23.6 13.7 22.2 27.4z"/>
				<path id="Layer" fill-rule="evenodd" class="s4" d="m314.3 57.3c-0.5 4.6-2.2 9-5 12.7-0.7 0.9-1.5 1.7-2.3 2.6-0.8 0.7-1.6 1.5-2.6 2.2-1.8 1.4-3.9 2.5-6 3.3-2.1 0.9-4.4 1.4-6.7 1.6-1.2 0.1-2.3 0.2-3.5 0.1q-1.7 0-3.4-0.4c-4.5-0.8-8.8-2.9-12.2-5.9l-12.3 1.9-0.9 0.1 0.4-0.8 6.1-10.6c-2.9-7.1-2.2-15.4 1.6-22 2-3.3 4.7-6.2 7.8-8.3 3.2-2.1 6.9-3.5 10.7-4 3.8-0.5 7.6-0.2 11.2 1 3.6 1.3 6.9 3.3 9.7 5.9 5.5 5.3 8.2 13.1 7.4 20.6zm-41.7 16.2l0.1-0.1h-0.3q0.1 0 0.2 0.1zm-6.7-9.4q0 0.1 0.1 0.2v-0.4zm48.4-6.8c0.8-7.5-2-15.3-7.5-20.5-2.8-2.5-6.1-4.5-9.6-5.6-3.6-1.1-7.4-1.4-11.1-0.9-3.7 0.6-7.3 2-10.3 4.1-3.1 2.1-5.6 4.9-7.5 8.1-1.9 3.2-2.8 6.9-3.1 10.6-0.3 3.7 0.3 7.4 1.7 10.8l0.1 0.3-0.1 0.2-5.8 9.9 11.5-1.6h0.2l0.1 0.1c3.3 3.1 7.5 5.3 12 6.2q1.6 0.3 3.4 0.4c1.1 0.1 2.2 0 3.4 0 2.2-0.3 4.5-0.6 6.6-1.5 2.2-0.8 4.2-1.8 6-3.2 1-0.7 1.8-1.5 2.7-2.2 0.7-0.9 1.6-1.7 2.2-2.6 2.9-3.6 4.6-8 5.1-12.6zm-53.2 17l-0.9 0.2 0.4 0.6z"/>
			</g>
			<g id="Layer">
				<path id="Layer" class="s8" d="m277.3 66.3c0-1.4 1.1-2.5 2.5-2.5 1.5 0 2.4 1.1 2.4 2.5 0 1.5-0.9 2.6-2.4 2.6-1.5 0-2.5-1.1-2.5-2.6zm1.1-5.9l-0.6-19.8h4l-0.6 19.8z"/>
				<path id="Layer" class="s8" d="m286.8 66.3c0-1.4 1.1-2.5 2.5-2.5 1.5 0 2.4 1.1 2.4 2.5 0 1.5-0.9 2.6-2.4 2.6-1.5 0-2.5-1.1-2.5-2.6zm1.1-5.9l-0.6-19.8h4l-0.6 19.8z"/>
				<path id="Layer" class="s8" d="m296.4 66.3c0-1.4 1-2.5 2.4-2.5 1.5 0 2.4 1.1 2.4 2.5 0 1.5-0.9 2.6-2.4 2.6-1.5 0-2.4-1.1-2.4-2.6zm1-5.9l-0.6-19.8h4l-0.6 19.8z"/>
			</g>
		</g>
	</g>
</svg>